<svg width="80" height="38" viewBox="0 0 80 38" fill="none" xmlns="http://www.w3.org/2000/svg">
<path d="M0 5C0 2.23858 2.23858 0 5 0H75C77.7614 0 80 2.23858 80 5C80 7.76142 77.7614 10 75 10H5C2.23858 10 0 7.76142 0 5Z" fill="#351C02"/>
<path d="M20 19C20 16.2386 22.2386 14 25 14H75C77.7614 14 80 16.2386 80 19C80 21.7614 77.7614 24 75 24H25C22.2386 24 20 21.7614 20 19Z" fill="#351C02"/>
<path d="M20 19C20 16.2386 22.2386 14 25 14H75C77.7614 14 80 16.2386 80 19C80 21.7614 77.7614 24 75 24H25C22.2386 24 20 21.7614 20 19Z" fill="#351C02"/>
<path d="M30 33C30 30.2386 32.2386 28 35 28H75C77.7614 28 80 30.2386 80 33C80 35.7614 77.7614 38 75 38H35C32.2386 38 30 35.7614 30 33Z" fill="#351C02"/>
<path d="M30 33C30 30.2386 31.8655 28 34.1667 28H75.8333C78.1345 28 80 30.2386 80 33C80 35.7614 78.1345 38 75.8333 38H34.1667C31.8655 38 30 35.7614 30 33Z" fill="#351C02"/>
</svg>
