<svg width="280" height="328" viewBox="0 0 280 328" fill="none" xmlns="http://www.w3.org/2000/svg">
<mask id="path-1-inside-1_15_24" fill="white">
<path fill-rule="evenodd" clip-rule="evenodd" d="M169.882 0.616348C158.654 3.4683 147.611 7.72851 136.98 13.4683C65.5259 52.0461 39.7434 142.853 79.3927 216.292C118.805 289.29 208.032 317.65 279.277 280.098C268.482 290.766 256.007 300.096 241.978 307.67C162.586 350.534 63.4766 320.922 20.6124 241.529C-22.2517 162.136 7.36069 63.0272 86.7536 20.163C113.211 5.8789 141.857 -0.356689 169.882 0.616348Z"/>
</mask>
<path fill-rule="evenodd" clip-rule="evenodd" d="M169.882 0.616348C158.654 3.4683 147.611 7.72851 136.98 13.4683C65.5259 52.0461 39.7434 142.853 79.3927 216.292C118.805 289.29 208.032 317.65 279.277 280.098C268.482 290.766 256.007 300.096 241.978 307.67C162.586 350.534 63.4766 320.922 20.6124 241.529C-22.2517 162.136 7.36069 63.0272 86.7536 20.163C113.211 5.8789 141.857 -0.356689 169.882 0.616348Z" fill="url(#paint0_linear_15_24)"/>
<path d="M169.882 0.616348L171.113 5.46246L170.056 -4.38064L169.882 0.616348ZM279.277 280.098L282.791 283.655L276.946 275.675L279.277 280.098ZM139.355 17.868C149.621 12.3253 160.28 8.21416 171.113 5.46246L168.651 -4.22977C157.029 -1.27757 145.6 3.1317 134.604 9.06862L139.355 17.868ZM83.7925 213.916C45.3932 142.793 70.444 55.0729 139.355 17.868L134.604 9.06862C60.6077 49.0192 34.0936 142.913 74.993 218.667L83.7925 213.916ZM276.946 275.675C208.236 311.891 121.961 284.612 83.7925 213.916L74.993 218.667C115.648 293.968 207.828 323.41 281.608 284.522L276.946 275.675ZM275.762 276.542C265.302 286.879 253.21 295.924 239.603 303.271L244.354 312.07C258.805 304.268 271.662 294.653 282.791 283.655L275.762 276.542ZM239.603 303.271C162.64 344.823 66.5644 316.117 25.0121 239.154L16.2127 243.904C60.3887 325.727 162.531 356.246 244.354 312.07L239.603 303.271ZM25.0121 239.154C-16.5401 162.191 12.166 66.115 89.129 24.5628L84.3782 15.7633C2.55539 59.9394 -27.9633 162.082 16.2127 243.904L25.0121 239.154ZM89.129 24.5628C114.784 10.7119 142.547 4.67028 169.709 5.61334L170.056 -4.38064C141.167 -5.38366 111.638 1.04591 84.3782 15.7633L89.129 24.5628Z" fill="url(#paint1_linear_15_24)" mask="url(#path-1-inside-1_15_24)"/>
<defs>
<linearGradient id="paint0_linear_15_24" x1="51.1457" y1="39.3877" x2="206.37" y2="326.895" gradientUnits="userSpaceOnUse">
<stop stop-color="#FDCC53"/>
<stop offset="1" stop-color="#895402"/>
</linearGradient>
<linearGradient id="paint1_linear_15_24" x1="51.1457" y1="39.3877" x2="206.37" y2="326.895" gradientUnits="userSpaceOnUse">
<stop stop-color="#F1BF4B"/>
<stop offset="1" stop-color="#935F09"/>
</linearGradient>
</defs>
</svg>
