<svg width="80" height="44" viewBox="0 0 80 44" fill="none" xmlns="http://www.w3.org/2000/svg">
<path d="M0 5C0 2.23858 2.23858 0 5 0H75C77.7614 0 80 2.23858 80 5V5C80 7.76142 77.7614 10 75 10H5C2.23858 10 0 7.76142 0 5V5Z" fill="#351C02"/>
<path d="M20 22C20 19.2386 22.2386 17 25 17H75C77.7614 17 80 19.2386 80 22V22C80 24.7614 77.7614 27 75 27H25C22.2386 27 20 24.7614 20 22V22Z" fill="#351C02"/>
<path d="M20 22C20 19.2386 22.2386 17 25 17H75C77.7614 17 80 19.2386 80 22C80 24.7614 77.7614 27 75 27H25C22.2386 27 20 24.7614 20 22Z" fill="#351C02"/>
<path d="M30 39C30 36.2386 32.2386 34 35 34H75C77.7614 34 80 36.2386 80 39V39C80 41.7614 77.7614 44 75 44H35C32.2386 44 30 41.7614 30 39V39Z" fill="#351C02"/>
<path d="M30 39C30 36.2386 31.8655 34 34.1667 34H75.8333C78.1345 34 80 36.2386 80 39C80 41.7614 78.1345 44 75.8333 44H34.1667C31.8655 44 30 41.7614 30 39Z" fill="#351C02"/>
</svg>
