<svg width="114" height="1025" viewBox="0 0 114 1025" fill="none" xmlns="http://www.w3.org/2000/svg">
<path d="M56.5342 630.25C60.4418 632.25 64.0972 635.5 66.114 639.875C70.904 649.625 68.0048 661.75 61.5762 669.499C60.3157 671.374 58.551 673.125 56.5342 675C54.3914 673.125 52.7527 671.374 51.3661 669.499C45.0636 661.75 42.1645 649.625 46.9544 639.875C48.9712 635.5 52.5006 632.25 56.5342 630.25ZM56.5342 664.25C58.8031 661.25 60.3157 657.749 61.072 654.124C61.8283 650.249 61.5762 646.124 60.0636 642.624C59.1813 640.75 58.0468 639.124 56.5342 637.749C55.0216 639.124 53.7611 640.75 53.0048 642.624C51.4922 646.124 51.2401 650.249 51.9964 654.124C52.7527 657.749 54.2653 661.25 56.5342 664.25Z" fill="#8E5128"/>
<path d="M56.5342 396.25C52.5006 394.25 48.9712 391 46.9544 386.625C42.1645 376.75 45.0636 364.875 51.3661 357C52.7527 355.125 54.3914 353.375 56.5342 351.5C58.551 353.375 60.3157 355.125 61.5762 357C67.8788 364.875 70.7779 376.75 65.988 386.625C63.9712 391 60.4418 394.25 56.5342 396.25ZM56.5342 362.25C54.2653 365.25 52.7527 368.625 51.9964 372.375C51.2401 376.25 51.4922 380.5 53.0048 383.875C53.7611 385.75 55.0216 387.375 56.5342 388.75C58.0468 387.375 59.1813 385.75 59.9376 383.875C61.4502 380.5 61.8283 376.25 61.072 372.375C60.3157 368.625 58.6771 365.25 56.5342 362.25Z" fill="#8E5128"/>
<path d="M56.5342 439.375C53.8872 443.125 50.7359 446.625 46.9544 449.5C43.8031 452 40.1477 454 36.2401 455.125C32.2065 456.125 28.0468 456.375 24.1393 455.75C16.3241 454.5 9.26531 450.125 5.10565 444.25C0.945984 438.375 -0.31452 431.625 0.0636314 426C0.315732 420.25 2.33254 415.625 4.34935 412.375C8.38296 405.875 15.6939 401.375 23.0048 400C30.3157 398.625 37.7527 400.125 43.0468 403.75C48.2149 407.25 50.988 412.125 51.4922 415.75C51.9964 419.5 50.8619 421.5 50.6098 421.375C50.1056 421.375 50.1056 419.375 48.8451 416.625C47.5846 413.875 44.8115 410.375 40.2737 408.25C36.1141 406 30.0636 405.125 24.5174 406.625C18.7191 408 13.425 411.5 10.5258 416.375C9.01321 418.625 7.37456 422.125 6.9964 426.75C6.4922 431.25 7.37456 436.75 10.6519 441.5C13.8031 446.25 19.7275 450.125 26.5342 451.125C33.3409 452.375 40.6519 449.875 46.5762 445.125C50.3577 442.125 53.509 438.5 56.5342 434.5C59.4334 438.5 62.7107 442.25 66.4922 445.125C72.2905 449.875 79.6014 452.375 86.5342 451.125C93.3409 450.125 99.1393 446.25 102.291 441.5C105.694 436.75 106.45 431.25 106.072 426.75C105.694 422.25 104.055 418.625 102.543 416.375C99.6435 411.5 94.2233 408 88.551 406.625C82.8788 405.125 76.9544 406 72.6687 408.25C68.2569 410.375 65.4838 413.875 64.2233 416.625C62.9628 419.375 62.9628 421.375 62.3325 421.375C62.0804 421.5 60.946 419.5 61.5762 415.875C62.0804 412.25 64.8535 407.25 70.0216 403.875C75.1897 400.375 82.6267 398.75 90.0636 400.125C97.3745 401.5 104.685 405.875 108.719 412.5C110.736 415.75 112.753 420.375 113.005 426C113.383 431.625 112.249 438.375 107.837 444.25C103.677 450.125 96.7443 454.5 88.8031 455.75C84.8956 456.375 80.7359 456.125 76.8283 455.125C72.9208 454 69.2653 452 66.1141 449.5C62.3325 446.5 59.1813 443 56.5342 439.375Z" fill="#8E5128"/>
<path d="M56.5342 587.125C59.1813 583.375 62.3325 579.875 65.988 577C69.1393 574.5 72.7947 572.5 76.7023 571.375C80.7359 570.25 84.8956 570.125 88.8031 570.75C96.7443 572 103.677 576.375 107.837 582.25C112.122 588.125 113.257 595 113.005 600.5C112.627 606.25 110.736 610.875 108.593 614C104.559 620.625 97.3746 625.125 90.0636 626.375C82.6267 627.875 75.1897 626.25 70.0216 622.625C64.8536 619.25 62.0804 614.25 61.5762 610.625C60.946 607 62.0804 605 62.4586 605.125C63.0888 605.125 63.0888 607.125 64.3493 609.875C65.6099 612.625 68.2569 616 72.6687 618.25C76.9544 620.5 82.8788 621.25 88.551 619.875C94.2233 618.5 99.5174 614.875 102.543 610.125C104.055 607.75 105.568 604.25 106.072 599.75C106.576 595.25 105.694 589.75 102.291 585C99.1393 580.25 93.2149 576.375 86.5342 575.375C79.7275 574.125 72.4166 576.625 66.4922 581.375C62.7107 584.375 59.4334 588 56.5342 592C53.509 588 50.3578 584.375 46.5762 581.375C40.6519 576.625 33.3409 574.125 26.5342 575.375C19.7275 576.375 13.9292 580.25 10.6519 585C7.37456 589.75 6.4922 595.25 6.99641 599.75C7.37456 604.25 9.01321 607.75 10.5258 610.125C13.425 614.875 18.7191 618.5 24.5174 619.875C30.0636 621.375 36.1141 620.5 40.2737 618.25C44.6855 616 47.4586 612.625 48.7191 609.875C49.9796 607.125 49.9796 605.125 50.4838 605.125C50.862 605 51.9964 607 51.4922 610.625C50.862 614.25 48.2149 619.25 43.0468 622.625C37.7527 626.125 30.3157 627.875 23.0048 626.375C15.6939 625.125 8.38296 620.625 4.34935 614C2.33254 610.875 0.315732 606.25 0.0636314 600.5C-0.31452 594.875 0.945985 588.125 5.10565 582.25C9.26531 576.375 16.3241 572 24.1393 570.75C28.0468 570.125 32.2065 570.25 36.2401 571.375C40.1477 572.5 43.9292 574.5 46.9544 577C50.7359 580 53.7611 583.5 56.5342 587.125Z" fill="#8E5128"/>
<path d="M56.534 428C53.5088 431.75 50.1055 434.75 48.2147 435.75C44.4332 437.875 39.013 437.75 38.5088 435.75C38.0046 433.75 41.6601 431 44.8114 429.375C46.45 428.5 50.4836 427.25 54.5172 424.875C55.1475 424.5 55.9038 424 56.534 423.625C57.1643 424 57.7945 424.5 58.5508 424.875C62.5845 427.25 66.6181 428.5 68.2567 429.375C71.2819 431.125 74.9374 433.875 74.4332 435.75C73.929 437.75 68.6349 437.75 64.8534 435.75C62.9626 434.875 59.4332 431.75 56.534 428Z" fill="#8E5128"/>
<path d="M56.534 598.5C59.4332 594.75 62.9626 591.625 64.8534 590.75C68.6349 588.625 73.929 588.75 74.4332 590.75C74.9374 592.75 71.2819 595.375 68.2567 597.125C66.6181 598 62.4584 599.25 58.5508 601.625C57.7945 602 57.1643 602.5 56.534 602.875C55.9038 602.5 55.1475 602 54.5172 601.625C50.4836 599.25 46.45 598 44.8114 597.125C41.6601 595.375 38.0046 592.625 38.5088 590.75C39.013 588.875 44.3072 588.75 48.2147 590.75C50.1055 591.625 53.5088 594.75 56.534 598.5Z" fill="#8E5128"/>
<path d="M56.5349 492C55.1483 489 54.0138 484 53.8878 479.375C53.7617 475.875 54.6441 467.875 56.5349 459.75C58.4256 467.875 59.1819 475.75 59.1819 479.375C58.9298 484 57.7954 488.875 56.5349 492Z" fill="#8E5128"/>
<path d="M77.9634 513.249C80.9886 511.874 86.0306 510.749 90.6945 510.624C94.2239 510.624 102.165 511.374 110.484 513.249C102.165 515.124 94.2239 515.874 90.6945 515.874C86.0306 515.749 80.9886 514.624 77.9634 513.249Z" fill="#8E5128"/>
<path d="M56.5349 534.5C57.7954 537.5 59.0559 542.375 59.1819 547.125C59.308 550.625 58.4256 558.5 56.5349 566.75C54.6441 558.5 53.7617 550.625 53.8878 547.125C54.0138 542.5 55.1483 537.5 56.5349 534.5Z" fill="#8E5128"/>
<path d="M34.9799 513.249C32.0808 514.624 27.0387 515.749 22.3749 515.874C18.8455 515.874 10.7782 515.124 2.58496 513.249C10.7782 511.374 18.7194 510.624 22.3749 510.624C27.0387 510.749 32.0808 511.874 34.9799 513.249Z" fill="#8E5128"/>
<path d="M59.6858 745.875V1342.38C59.6858 1343.88 58.4253 1345 57.0387 1345C55.5261 1345 54.2656 1343.75 54.2656 1342.38V745.875C54.2656 744.375 55.5261 743.125 57.0387 743.125C58.4253 743.125 59.6858 744.375 59.6858 745.875Z" fill="#8E5128"/>
<path d="M56.9123 696.625C60.5323 696.625 63.4669 693.715 63.4669 690.125C63.4669 686.535 60.5323 683.625 56.9123 683.625C53.2923 683.625 50.3577 686.535 50.3577 690.125C50.3577 693.715 53.2923 696.625 56.9123 696.625Z" fill="#8E5128"/>
<path d="M56.9127 736C60.4631 736 63.3413 733.146 63.3413 729.625C63.3413 726.104 60.4631 723.25 56.9127 723.25C53.3623 723.25 50.4841 726.104 50.4841 729.625C50.4841 733.146 53.3623 736 56.9127 736Z" fill="#8E5128"/>
<path d="M56.9124 719.125C61.9943 719.125 66.1141 715.039 66.1141 710C66.1141 704.96 61.9943 700.875 56.9124 700.875C51.8304 700.875 47.7107 704.96 47.7107 710C47.7107 715.039 51.8304 719.125 56.9124 719.125Z" fill="#8E5128"/>
<path d="M59.6858 -316V280.5C59.6858 282 58.4253 283.125 57.0387 283.125C55.5261 283.125 54.2656 282 54.2656 280.5V-316C54.2656 -317.5 55.5261 -318.625 57.0387 -318.625C58.4253 -318.625 59.6858 -317.5 59.6858 -316Z" fill="#8E5128"/>
<path d="M56.9123 303.375C60.5323 303.375 63.4669 300.465 63.4669 296.875C63.4669 293.285 60.5323 290.375 56.9123 290.375C53.2923 290.375 50.3577 293.285 50.3577 296.875C50.3577 300.465 53.2923 303.375 56.9123 303.375Z" fill="#8E5128"/>
<path d="M56.9123 342.875C60.5323 342.875 63.4669 339.965 63.4669 336.375C63.4669 332.785 60.5323 329.875 56.9123 329.875C53.2923 329.875 50.3577 332.785 50.3577 336.375C50.3577 339.965 53.2923 342.875 56.9123 342.875Z" fill="#8E5128"/>
<path d="M56.9124 325.875C61.9943 325.875 66.1141 321.789 66.1141 316.75C66.1141 311.71 61.9943 307.625 56.9124 307.625C51.8304 307.625 47.7107 311.71 47.7107 316.75C47.7107 321.789 51.8304 325.875 56.9124 325.875Z" fill="#8E5128"/>
</svg>
