<svg width="1056" height="488" viewBox="0 0 1056 488" fill="none" xmlns="http://www.w3.org/2000/svg">
<mask id="mask0_2_80" style="mask-type:alpha" maskUnits="userSpaceOnUse" x="0" y="0" width="1056" height="488">
<rect width="1056" height="488" fill="url(#paint0_linear_2_80)"/>
</mask>
<g mask="url(#mask0_2_80)">
<path opacity="0.3" fill-rule="evenodd" clip-rule="evenodd" d="M793.437 265.566L793.311 292.691H792.428C791.546 292.691 790.538 293.441 790.538 294.691C790.538 295.316 791.546 296.316 792.428 296.316H793.311L792.933 329.691H791.042C789.781 329.691 788.773 330.566 788.773 331.816C788.773 332.941 789.781 334.066 791.042 334.066H792.933V345.941H784.739V336.816V336.066V335.816V335.316V332.941H785.748C786.126 332.941 786.756 332.566 786.756 331.816C786.756 331.441 786.126 330.816 785.748 330.816H784.613C785.117 329.191 785.874 326.066 784.487 322.941C783.731 321.566 782.47 320.316 781.084 319.066C779.445 317.691 778.059 316.566 776.672 316.066C776.672 316.066 776.672 315.816 776.672 315.441C776.924 315.191 776.672 314.691 776.42 314.316C776.42 314.066 776.042 313.691 775.538 313.316C775.159 312.941 774.781 312.816 774.529 312.441V311.691C774.781 311.566 774.781 311.566 774.781 311.316C774.781 311.316 774.781 310.941 774.655 310.816C774.655 310.816 774.529 310.691 774.403 310.691V310.066C774.529 309.816 774.529 309.816 774.529 309.816V309.316C774.529 309.066 774.403 309.066 774.403 309.066V308.316L774.025 303.691H773.899H773.647V308.316V308.941C773.395 308.941 773.395 308.941 773.395 309.191C773.395 309.191 773.395 309.191 773.395 309.691C773.395 309.691 773.395 309.691 773.395 309.941V310.441C773.395 310.441 773.395 310.566 773.269 310.566L773.017 311.066C773.017 311.316 773.017 311.316 773.269 311.441C773.395 311.441 773.395 311.441 773.395 311.441V312.191C773.017 312.566 772.764 312.691 772.386 313.066C771.756 313.441 771.378 313.816 771.378 314.066C771.126 314.566 771.126 315.191 771.126 315.441C771.126 315.816 771.126 315.941 771.378 316.066C770.117 316.691 768.479 317.691 766.84 319.066C765.328 320.316 764.067 321.566 763.563 322.941C762.05 326.066 762.68 329.191 763.311 330.816H762.302C761.924 330.816 761.42 331.316 761.42 331.816C761.42 332.441 761.924 332.941 762.302 332.941H763.059V335.816V345.941H755.622V339.691V338.316L755.748 337.816C755.622 337.566 755.622 337.441 755.622 337.191V333.441H757.008C757.891 333.441 758.647 332.691 758.647 331.816C758.647 331.066 757.891 330.441 757.008 330.441H755.244C755.874 327.691 757.26 322.941 754.865 317.941C753.857 315.816 751.966 313.691 749.697 311.566C747.176 309.941 744.781 308.441 742.638 307.191C742.764 306.941 742.765 306.441 743.017 306.066C743.017 305.566 742.764 304.816 742.638 304.191C742.26 303.816 741.756 303.066 741.126 302.566C740.496 302.066 739.613 301.691 739.487 301.316L739.109 300.691C739.487 300.191 739.487 300.066 739.613 300.066C739.613 300.066 739.613 299.816 739.613 299.441C739.613 299.441 739.613 299.191 739.487 298.691C739.487 298.691 739.487 298.691 739.109 298.691L738.983 297.816C739.109 297.691 739.487 297.691 739.487 297.316C739.487 297.191 739.487 297.191 739.487 296.941C739.487 296.816 739.487 296.566 739.487 296.566C739.109 296.441 739.109 296.441 738.983 296.191V295.066L738.605 287.566C738.605 287.566 738.479 287.566 738.353 287.566L737.849 295.066V295.941C737.849 296.066 737.723 296.066 737.723 296.316C737.47 296.316 737.47 296.566 737.47 296.691C737.47 296.941 737.47 296.941 737.47 297.066C737.722 297.441 737.722 297.441 737.849 297.566V298.441C737.722 298.441 737.47 298.441 737.218 298.441C737.218 298.816 737.218 299.191 737.218 299.191C737.218 299.566 737.218 299.816 737.218 299.816C737.47 299.816 737.47 300.066 737.723 300.566V301.191C737.092 301.566 736.462 301.816 735.58 302.441C735.201 302.941 734.571 303.691 734.445 304.066C734.067 304.691 734.067 305.441 734.067 305.941C734.067 306.316 734.193 306.816 734.193 306.816C731.924 308.191 729.529 309.816 727.513 311.441C724.992 313.566 723.101 315.816 722.092 317.816C719.823 322.816 720.832 327.441 721.714 330.316H720.328C719.193 330.316 718.563 330.816 718.563 331.691C718.563 332.566 719.193 333.316 720.328 333.316H721.462V337.691V345.816H713.521V340.816H714.529C715.286 340.816 716.042 340.191 716.042 338.816C716.042 338.191 715.286 337.441 714.529 337.441H713.647C715.538 333.566 719.571 321.441 714.151 308.816C711.882 304.066 707.722 299.691 702.807 295.316C697.764 291.691 692.722 288.441 688.311 285.816C688.689 284.941 688.815 284.566 688.815 283.316C688.815 282.316 688.815 280.941 688.185 279.566C687.555 278.316 686.168 276.941 684.781 276.191C683.647 274.941 682.26 274.191 681.252 273.566V271.441C681.378 271.316 681.756 270.816 682.008 270.566C682.008 270.316 682.26 269.941 682.26 269.566C682.26 268.941 682.008 268.691 682.008 268.316C681.756 267.941 681.252 267.566 681 267.441V265.566C681.126 265.191 681.252 265.066 681.378 264.941C681.504 264.191 681.756 264.066 681.756 263.566C681.756 263.441 681.504 263.066 681.252 262.691C681.252 262.191 681 262.191 680.874 262.191V259.941L679.865 244.566C681.252 244.566 682.765 244.441 684.277 243.691C685.664 242.691 686.798 241.566 687.302 240.441C686.798 240.816 686.042 241.566 685.034 242.066C681.756 244.066 677.092 242.941 674.95 239.316C673.059 236.066 674.319 231.441 677.723 229.441C678.479 229.191 679.613 228.566 680.496 228.566C678.857 228.316 677.218 228.941 675.958 229.566C672.05 231.816 670.664 236.941 673.059 240.566C674.319 242.941 676.462 244.316 678.983 244.566L678.353 259.941L678.227 262.191C678.101 262.191 677.975 262.191 677.723 262.691C677.47 262.941 677.47 263.441 677.47 263.566C677.47 264.066 677.47 264.191 677.723 264.941C677.975 264.941 677.975 265.191 678.227 265.566L678.101 267.441C677.975 267.566 677.47 267.816 677.344 268.316C677.092 268.691 676.84 268.941 676.84 269.566C676.84 269.816 677.092 270.316 677.344 270.566C677.47 270.816 677.596 271.316 677.974 271.441V273.691C676.84 274.316 675.327 275.066 674.445 276.316C672.806 277.191 671.672 278.566 671.042 279.691C670.412 281.066 670.286 282.316 670.286 283.441C670.286 284.691 670.664 285.066 670.916 285.941C666.378 288.566 661.21 291.816 656.42 295.441C651.504 299.816 647.218 304.316 644.949 308.941C639.529 321.566 643.689 333.691 645.328 337.566H644.571C643.437 337.566 642.681 338.316 642.681 338.941C642.681 340.316 643.437 340.941 644.571 340.941H644.949V345.941H637.386V339.691V338.316V337.816C637.386 337.566 637.386 337.441 637.386 337.191V333.441H638.647C639.529 333.441 640.285 332.691 640.285 331.816C640.285 331.066 639.529 330.441 638.647 330.441H636.756C637.891 327.691 638.773 322.941 636.63 317.941C635.496 315.816 633.605 313.691 631.084 311.566C628.941 309.941 626.42 308.441 624.277 307.191C624.403 306.941 624.403 306.441 624.403 306.066C624.529 305.566 624.403 304.816 624.277 304.191C623.773 303.816 623.395 303.066 622.638 302.566C622.008 302.066 621.378 301.691 620.748 301.316V300.691C620.874 300.191 620.874 300.066 621.126 300.066C621.252 300.066 621.252 299.816 621.252 299.441C621.252 299.441 621.252 299.191 621.126 298.691C620.874 298.691 620.874 298.691 620.748 298.691L620.622 297.816C620.748 297.691 620.748 297.691 620.874 297.316C620.874 297.191 620.874 297.191 620.874 296.941C620.874 296.816 620.874 296.566 620.874 296.566C620.748 296.441 620.748 296.441 620.622 296.191V295.066L620.37 287.566H620.117C619.991 287.566 619.865 287.566 619.865 287.566L619.487 295.066V295.941C619.361 296.066 619.361 296.066 619.235 296.316C619.235 296.316 619.235 296.566 619.235 296.691C619.235 296.941 619.235 296.941 619.235 297.066C619.235 297.441 619.361 297.441 619.487 297.566V298.441C619.235 298.441 619.235 298.441 619.235 298.441C618.857 298.816 618.857 299.191 618.857 299.191C618.857 299.566 618.857 299.816 618.983 299.816C618.983 299.816 619.235 299.941 619.361 300.441L619.235 301.066C618.857 301.441 618.101 301.691 617.597 302.316C616.84 302.816 616.21 303.566 615.832 303.941C615.706 304.566 615.58 305.316 615.706 305.816C615.706 306.191 615.706 306.691 615.832 306.941C613.815 308.066 611.168 309.691 609.025 311.316C606.63 313.441 604.613 315.691 603.479 317.691C601.462 322.691 602.597 327.316 603.227 330.191H601.966C600.958 330.191 600.202 330.691 600.202 331.566C600.202 332.441 600.958 333.191 601.966 333.191H603.101V337.566V345.691H595.664V336.816V336.066V335.816V335.316V332.941H596.294C596.924 332.941 597.428 332.566 597.428 331.816C597.428 331.441 596.924 330.816 596.294 330.816H595.412C595.79 329.191 596.546 326.066 595.159 322.941C594.403 321.566 593.017 320.316 591.882 319.066C590.496 317.691 588.983 316.691 587.596 316.066C587.596 316.066 587.596 315.816 587.596 315.441C587.596 315.191 587.596 314.566 587.596 314.316C587.47 314.066 586.966 313.691 586.462 313.316C586.21 312.941 585.706 312.816 585.58 312.441V311.691H585.706C585.706 311.691 585.706 311.566 585.706 311.316V310.691C585.706 310.691 585.58 310.566 585.328 310.566L585.202 310.066C585.58 309.816 585.58 309.816 585.58 309.816C585.706 309.441 585.706 309.441 585.706 309.441C585.706 309.441 585.706 309.316 585.58 309.316C585.58 309.066 585.328 309.066 585.202 309.066V308.316L585.075 303.691C585.075 303.691 585.075 303.691 584.823 303.691V308.316V308.941C584.571 308.941 584.571 308.941 584.571 309.191L584.319 309.316C584.319 309.316 584.571 309.316 584.571 309.691C584.571 309.691 584.571 309.691 584.823 309.941L584.571 310.441C584.571 310.441 584.571 310.566 584.319 310.566V311.066C584.319 311.316 584.319 311.316 584.319 311.316L584.571 311.441V312.191C584.193 312.566 583.941 312.691 583.437 313.066C583.185 313.441 582.68 313.816 582.428 314.066C582.176 314.566 582.176 315.191 582.176 315.441C582.176 315.816 582.302 315.941 582.428 316.066C581.042 316.691 579.529 317.691 578.143 319.066C576.63 320.316 575.244 321.566 574.613 322.941C573.227 326.066 573.857 329.191 574.487 330.816H573.353C572.975 330.816 572.344 331.316 572.344 331.816C572.344 332.441 572.975 332.941 573.353 332.941H574.235V335.816V345.941H568.563V321.066H570.832C572.344 321.066 573.605 319.816 573.605 318.316C573.605 316.691 572.218 315.566 570.832 315.566H568.563L568.311 273.816H569.193C570.454 273.816 571.714 272.691 571.714 271.441C571.714 270.066 570.454 269.066 569.193 269.066H568.185L568.059 234.816H569.193C570.202 234.816 571.336 234.066 571.336 232.941C571.336 231.941 570.454 231.066 569.697 230.941V217.316V216.316V216.066C569.697 215.816 569.697 215.691 569.697 215.691V212.816H570.454C571.084 212.816 571.84 212.316 571.84 211.691C571.84 211.066 571.084 210.566 570.454 210.566H569.193C569.949 208.691 570.706 205.191 569.067 201.691C568.311 200.191 566.798 198.691 565.286 197.191C563.521 195.691 561.756 194.441 560.117 193.691C560.37 193.691 560.37 193.441 560.37 193.066C560.37 192.566 560.37 192.191 560.117 191.941C559.991 191.191 559.613 190.691 558.857 190.566C558.731 190.191 558.101 189.691 557.722 189.566V188.691H558.101C558.101 188.691 558.101 188.316 558.101 188.191C558.101 188.191 558.101 188.066 558.101 187.566C558.101 187.566 557.723 187.566 557.596 187.566V186.691C557.723 186.691 557.722 186.691 557.722 186.691C557.722 186.691 558.101 186.441 558.101 186.066L557.722 185.816C557.722 185.691 557.596 185.691 557.596 185.691V184.941L557.344 179.566C557.344 179.316 557.344 179.316 557.218 179.316L556.84 185.066V185.691C556.714 185.691 556.714 185.691 556.714 185.816C556.462 185.816 556.336 185.941 556.336 185.941C556.336 186.316 556.462 186.316 556.462 186.566C556.714 186.566 556.714 186.566 556.714 186.566V187.191C556.714 187.191 556.462 187.191 556.336 187.191C556.336 187.691 556.336 187.816 556.336 187.816C556.336 187.941 556.336 188.316 556.336 188.316C556.336 188.316 556.462 188.316 556.714 188.316V189.566C556.21 189.691 555.958 190.191 555.454 190.441C554.697 190.566 554.445 191.066 554.067 191.816C554.067 192.066 553.941 192.441 553.941 192.941C553.941 193.316 554.067 193.441 554.067 193.441C552.681 194.316 550.916 195.566 549.403 197.066C547.386 198.441 546.126 199.941 545.37 201.566C543.731 205.066 544.487 208.566 545.118 210.441H543.983C543.353 210.441 542.975 210.941 542.975 211.566C542.975 212.191 543.353 212.691 543.983 212.691H544.991V216.066V230.816C543.857 230.941 543.227 231.691 543.227 232.816C543.227 233.941 544.235 234.691 545.496 234.691H546.63L546.378 268.941H545.496C543.983 268.941 542.975 269.816 542.975 271.316C542.975 272.566 543.983 273.691 545.496 273.691H546.252L546.126 315.441H543.731C542.092 315.441 540.832 316.691 540.832 318.191C540.832 319.816 542.218 320.941 543.731 320.941H546.126L546 383.691C544.487 382.316 542.975 380.941 541.084 379.816C535.664 374.816 529.235 371.191 524.319 368.566C524.697 367.816 524.949 366.566 524.949 365.441C524.949 364.066 524.697 362.566 524.193 361.191C523.437 359.566 521.798 358.066 520.412 357.066C518.899 355.691 517.386 354.816 516.126 354.191V351.441C516.378 351.316 516.756 350.816 516.756 350.441C517.134 350.191 517.26 349.566 517.26 349.066C517.26 348.566 517.134 347.941 516.756 347.441C516.63 347.191 516.126 346.941 515.874 346.566V344.316C516 344.191 516.126 343.941 516.378 343.566C516.63 343.316 516.63 342.941 516.63 342.566C516.63 341.816 516.63 341.816 516.378 341.191C516.126 341.066 515.874 340.566 515.496 340.566V338.316L514.739 319.816C514.487 319.566 514.487 319.316 514.235 319.316C513.857 319.316 513.731 319.566 513.731 319.816L512.849 338.316L512.596 340.566C512.47 340.566 512.344 341.066 512.092 341.191C511.84 341.816 511.714 341.816 511.714 342.566C511.714 342.816 511.84 343.191 511.84 343.566C512.344 343.941 512.344 344.066 512.47 344.316V346.566C512.218 346.816 511.84 347.066 511.588 347.441C511.21 347.941 511.21 348.566 511.21 349.066C511.21 349.566 511.21 350.191 511.588 350.441C511.714 350.816 511.84 351.191 512.344 351.441V354.066C511.084 354.816 509.445 355.691 507.933 356.941C506.42 357.941 504.907 359.441 504.277 361.066C503.521 362.441 503.269 363.941 503.269 365.316C503.521 366.441 503.647 367.691 503.773 368.441C498.857 371.066 492.807 374.816 487.134 379.691C485.748 380.691 484.361 381.566 483.101 382.941H481.84L481.588 349.691H482.218C483.353 349.691 484.235 348.941 484.235 347.816C484.235 346.691 483.353 345.816 482.218 345.816H481.588L481.462 318.816H482.218C483.101 318.816 483.983 318.066 483.983 317.191C483.983 316.066 483.605 315.566 482.723 315.566V311.191V310.066C482.723 309.816 482.723 309.816 482.723 309.441V307.566H483.605C483.983 307.566 484.361 307.316 484.361 306.566C484.361 306.191 483.983 305.816 483.605 305.816H482.344C482.849 304.191 483.605 301.566 482.218 298.566C481.588 297.441 480.454 296.066 479.193 295.066C477.933 293.941 476.546 293.066 475.286 292.191C475.538 292.191 475.538 292.066 475.538 291.691C475.538 291.441 475.538 291.191 475.16 290.816C475.033 290.316 474.781 289.941 474.277 289.816C473.899 289.566 473.647 289.316 473.269 289.191V288.566C473.269 288.566 473.521 288.566 473.521 288.191C473.521 288.191 473.647 288.191 473.647 288.066C473.647 288.066 473.521 288.066 473.521 287.816L473.269 287.316V286.941V286.441H473.521C473.521 286.316 473.269 286.316 473.269 286.316C473.269 285.941 473.269 285.941 473.269 285.941V285.441L472.891 281.191C472.891 280.941 472.891 280.941 472.765 280.941C472.765 280.941 472.765 280.941 472.765 281.191L472.512 285.316V285.816C472.512 285.816 472.512 285.816 472.512 286.191C472.26 286.191 472.26 286.191 472.26 286.316C472.26 286.316 472.26 286.316 472.512 286.316V286.816V287.066L472.26 287.566C472.134 287.816 472.134 287.816 472.134 287.816C472.134 287.941 472.134 287.941 472.26 287.941C472.26 288.316 472.26 288.316 472.512 288.316V288.941C472.134 289.066 471.756 289.316 471.252 289.566C471 289.691 470.622 290.066 470.496 290.566C470.37 290.941 470.244 291.191 470.244 291.441C470.244 291.816 470.37 291.941 470.496 291.941C469.361 292.816 467.723 293.691 466.462 294.816C465.202 295.941 463.941 297.316 463.437 298.316C462.176 301.191 462.681 303.941 463.437 305.566H462.302C462.05 305.816 461.546 306.191 461.546 306.566C461.546 307.316 462.05 307.566 462.302 307.566H463.059V310.066V315.816C462.302 315.816 461.924 316.191 461.924 317.441C461.924 318.316 462.428 319.066 463.563 319.066H464.445L464.193 346.066H463.563C463.437 346.066 463.437 346.066 463.437 346.066H450.076L449.823 263.191H452.849C455.244 263.191 457.008 261.191 457.008 259.191C457.008 256.816 455.117 255.316 452.849 255.316H449.823L449.319 195.566H450.58C452.47 195.566 453.983 194.316 453.983 192.316C453.983 190.316 452.344 188.941 450.58 188.941H449.319L449.193 140.441H450.58C452.344 140.441 453.605 139.066 453.605 137.191C453.605 135.941 452.597 134.691 450.958 134.441V126.191V124.566L451.336 124.191C451.336 124.066 450.958 123.816 450.958 123.441V119.566H452.344C453.353 119.566 454.109 118.816 454.109 117.941C454.109 117.191 453.353 116.566 452.344 116.566H450.58C451.588 113.941 452.596 108.816 450.454 103.816C449.319 101.441 447.176 99.0659 444.907 97.1909C442.513 95.4409 439.865 93.6909 437.723 92.6909C437.849 92.3159 437.849 91.8159 437.849 91.1909C437.975 90.8159 437.849 90.1909 437.723 89.5659C437.344 88.9409 436.714 88.3159 436.084 87.5659C435.454 87.1909 434.823 86.8159 434.193 86.3159V85.4409C434.193 85.4409 434.319 85.3159 434.571 85.3159C434.697 85.0659 434.697 84.8159 434.697 84.4409C434.697 84.4409 434.697 84.1909 434.571 83.8159C434.319 83.6909 434.193 83.6909 434.193 83.5659L433.815 82.5659C434.193 82.3159 434.193 82.3159 434.193 82.1909C434.319 82.1909 434.319 82.0659 434.319 82.0659C434.319 81.4409 434.319 81.4409 434.193 81.3159C434.193 81.3159 434.193 81.3159 433.815 80.9409V80.0659L433.563 72.3159L433.437 72.1909L433.185 72.3159L432.933 80.0659L432.681 80.8159C432.681 81.1909 432.681 81.1909 432.555 81.1909C432.555 81.3159 432.428 81.3159 432.428 81.9409C432.428 81.9409 432.429 82.1909 432.555 82.1909C432.681 82.3159 432.681 82.3159 432.681 82.5659V83.5659C432.555 83.6909 432.428 83.6909 432.428 83.8159C432.428 84.0659 432.05 84.3159 432.05 84.3159C432.05 84.6909 432.428 84.9409 432.428 85.1909C432.428 85.1909 432.555 85.3159 432.681 85.3159V86.3159C432.05 86.8159 431.42 87.1909 430.79 87.5659C430.033 88.3159 429.529 88.9409 429.277 89.5659C428.899 90.1909 428.899 90.8159 428.899 91.1909C428.899 91.6909 428.899 92.1909 429.025 92.6909C427.008 93.5659 424.613 95.3159 422.092 97.1909C419.445 99.0659 417.681 101.441 416.42 103.816C414.151 108.816 415.286 113.941 416.294 116.566H414.907C413.899 116.566 413.269 117.191 413.269 117.941C413.269 118.816 413.899 119.566 414.907 119.566H416.168V124.191V134.191C414.781 134.566 413.899 135.691 413.899 136.941C413.899 138.816 415.286 140.191 416.672 140.191H418.437L418.185 188.691H416.672C414.781 188.691 413.269 190.191 413.269 192.066C413.269 194.066 414.907 195.316 416.672 195.316H418.185L417.807 255.066H414.277C413.647 255.066 412.891 255.191 412.26 255.566C405.454 246.066 396.63 237.441 386.672 229.441C373.059 218.066 357.807 208.566 345.202 201.566C346.084 199.691 346.336 197.066 346.462 194.316C346.84 191.191 346.21 187.316 344.697 183.566C342.933 179.691 339.151 176.066 335.496 172.941C331.84 170.316 327.681 168.066 324.781 166.316L324.403 159.816C325.412 159.191 326.042 158.566 326.546 157.566C327.176 156.566 327.302 155.316 327.302 153.941C327.302 152.691 327.176 151.316 326.546 150.316C325.664 149.441 324.908 148.441 324.025 147.816L323.647 142.316C324.277 141.691 324.781 141.191 325.286 140.691C325.664 139.441 326.042 138.816 326.042 137.691C326.042 136.566 325.538 135.441 325.034 134.816C324.655 133.941 324.025 133.316 323.143 132.941L323.017 126.691L321.126 82.4409C325.16 82.4409 329.445 81.3159 333.353 79.3159C337.386 76.6909 340.79 73.4409 342.555 69.4409C340.916 71.5659 338.899 73.5659 336.252 74.8159C326.42 80.6909 313.311 77.3159 307.513 67.3159C301.588 57.1909 304.991 44.5659 315.202 38.5659C317.723 37.4409 320.244 36.3159 323.143 36.0659C318.857 35.6909 314.193 36.9409 310.034 39.1909C298.689 45.5659 295.034 59.6909 301.588 70.6909C305.244 77.1909 311.798 81.1909 318.857 82.0659L316.588 126.441L316.462 132.691C315.706 133.066 315.202 133.691 314.697 134.566C314.067 135.191 313.941 136.316 313.941 137.441C313.941 138.566 314.067 139.191 314.571 140.441C314.823 140.941 315.328 141.441 315.958 142.066L315.832 147.566C314.823 148.066 314.067 149.066 313.437 150.066C312.807 151.191 312.302 152.566 312.302 153.691C312.302 155.191 312.807 156.316 313.311 157.316C313.689 158.191 314.571 158.816 315.202 159.566L314.824 166.066C311.924 167.816 308.017 170.066 304.235 172.691C300.454 175.691 296.798 179.441 295.16 183.316C293.395 187.066 293.017 191.066 293.269 194.066C293.269 196.816 293.899 199.316 294.529 201.316C281.798 208.316 266.546 217.691 252.807 229.191C238.941 240.566 226.21 254.066 220.034 268.066C205.916 300.066 214.235 331.566 219.529 345.816H202.891V384.566C201.252 383.316 199.992 381.691 198.227 380.316C193.941 376.941 189.151 374.066 185.118 371.816C185.244 371.066 185.622 370.566 185.622 369.316C185.622 368.441 185.622 367.066 184.739 366.316C184.487 364.816 183.227 363.816 182.092 363.066C180.958 361.941 179.697 361.316 178.815 360.816V358.816C179.067 358.691 179.193 358.191 179.445 358.066C179.445 357.441 179.697 357.441 179.697 357.066C179.697 356.441 179.445 356.441 179.193 355.816C179.193 355.816 178.815 355.191 178.563 354.941V353.316C178.689 353.191 178.815 352.691 179.067 352.691C179.193 352.566 179.193 352.066 179.193 351.941C179.193 351.566 179.193 351.191 178.815 351.191C178.815 350.566 178.563 350.566 178.311 350.566V348.441L177.555 334.066C177.555 334.066 177.429 333.816 177.302 333.816C177.176 333.816 176.924 334.066 176.924 334.066L176.294 348.441L176.168 350.441C176.042 350.441 175.79 350.441 175.664 351.066C175.412 351.066 175.412 351.441 175.412 351.816C175.412 351.941 175.412 352.441 175.538 352.566C175.664 352.566 175.79 352.941 176.168 353.191L176.042 354.816C175.664 354.941 175.412 355.566 175.16 355.691C175.034 356.316 174.907 356.316 174.907 356.941C174.907 357.191 175.034 357.316 175.16 357.941C175.412 358.066 175.538 358.566 175.79 358.691V360.816C175.034 361.316 173.773 361.941 172.639 363.066C171.252 363.941 170.244 364.941 169.74 366.316C169.235 367.191 168.983 368.441 168.983 369.316C169.235 370.441 169.361 371.066 169.487 371.816C168.353 372.441 166.84 373.066 165.706 374.066L165.58 345.941H166.21C167.218 345.941 168.227 345.191 168.227 344.066C168.227 343.191 167.218 341.941 166.21 341.941H165.58L165.328 315.316H166.21C167.092 315.316 167.849 314.441 167.849 313.566C167.849 312.691 167.471 312.066 166.588 311.566V307.316V306.566V306.316V305.941V303.941H167.471C167.723 303.941 168.227 303.316 168.227 302.691C168.227 302.316 167.723 302.191 167.471 302.191H166.336C166.84 300.816 167.47 297.816 166.21 294.941C165.58 293.566 164.193 292.316 163.059 291.316C161.672 290.191 160.412 289.316 159.025 288.691C159.277 288.566 159.277 288.191 159.277 287.941C159.277 287.941 159.277 287.191 159.025 286.941C159.025 286.441 158.521 286.316 158.269 285.941C157.891 285.691 157.513 285.441 157.134 285.066V284.816C157.134 284.691 157.387 284.691 157.513 284.691C157.513 284.691 157.513 284.316 157.513 284.191C157.513 284.191 157.513 284.066 157.386 284.066C157.386 283.691 157.134 283.691 157.134 283.691V283.066V282.691C157.387 282.691 157.386 282.691 157.386 282.566C157.386 282.566 157.387 282.316 157.134 282.316C157.134 282.066 157.134 282.066 157.008 282.066V281.566L156.882 277.316H156.756C156.756 277.191 156.756 277.316 156.756 277.316L156.504 281.566V282.066C156.378 282.066 156.252 282.066 156.252 282.316V282.566C156.252 282.691 156.252 282.691 156.252 282.691L156.378 283.066V283.441C156.252 283.441 156.252 283.441 156 283.816V283.941C156 284.066 156 284.441 156 284.441C156.252 284.441 156.252 284.441 156.378 284.566L156.252 284.816C156 285.191 155.748 285.441 155.244 285.691C154.992 286.066 154.487 286.191 154.361 286.691C154.361 286.941 154.361 287.691 154.361 287.691C154.361 287.816 154.361 288.316 154.361 288.316C153.227 289.066 151.714 289.941 150.328 290.941C149.067 291.941 147.681 293.191 147.429 294.566C146.168 297.441 146.672 300.441 147.176 301.816H146.294C145.916 301.816 145.538 301.941 145.538 302.316C145.538 302.941 145.916 303.566 146.294 303.566H147.05V305.941V311.316C146.294 311.816 145.664 312.441 145.664 313.316C145.664 314.191 146.672 315.066 147.555 315.066H148.311L148.059 342.066H147.429C146.294 342.066 145.412 343.316 145.412 344.191C145.412 345.316 146.294 346.066 147.429 346.066H148.059L147.933 364.316C145.16 359.441 140.37 354.441 135.202 350.566C129.529 345.691 123.101 341.691 117.807 338.566C117.933 337.941 118.185 336.816 118.311 335.941C118.311 334.316 118.185 332.816 117.429 331.191C116.672 329.441 115.286 327.816 113.647 326.691C112.008 325.566 110.37 324.441 109.361 324.066L108.983 321.316C109.361 321.316 109.613 320.816 109.992 320.191C110.118 319.941 110.37 319.441 110.37 319.066C110.37 318.441 110.118 317.691 109.866 317.316C109.613 316.941 109.361 316.566 108.857 316.316L108.731 314.066C108.983 313.941 109.361 313.566 109.361 313.191C109.487 313.066 109.613 312.691 109.613 311.941C109.613 311.816 109.487 311.191 109.361 310.941C108.983 310.441 108.857 310.191 108.731 309.691L108.353 307.566L107.597 288.316C107.597 288.191 107.344 288.191 107.092 288.191C106.966 288.191 106.588 288.191 106.588 288.316L105.832 307.566L105.706 309.691C105.328 310.066 105.076 310.441 104.697 310.941C104.697 311.191 104.571 311.816 104.571 311.941C104.571 312.566 104.697 313.066 104.697 313.191C105.076 313.566 105.202 313.941 105.454 314.066L105.328 316.316C104.823 316.441 104.697 316.941 104.319 317.316C104.067 317.691 103.941 318.316 103.941 319.066C103.941 319.441 104.067 319.941 104.319 320.191C104.571 320.816 104.697 321.316 105.076 321.316V324.066C103.689 324.566 102.302 325.691 100.664 326.691C98.8991 327.816 97.5126 329.441 96.7563 331.191C96.126 332.691 96 334.066 96 335.691C96 336.691 96.3781 337.816 96.5042 338.316C91.8403 341.066 86.042 344.566 80.7479 348.941L80.4958 296.316H82.3865C85.2856 296.316 87.6807 293.941 87.6807 290.941C87.6807 287.816 85.2856 285.566 82.3865 285.566H80.4958L79.9915 211.566H82.3865C84.9075 211.566 87.0504 209.191 87.0504 206.816C87.0504 204.691 85.4117 202.691 83.2688 202.066V172.941V170.816L83.3949 170.316C83.3949 169.816 83.1428 169.691 83.1428 169.066V163.316H85.2857C86.6723 163.316 87.8067 162.066 87.8067 160.816C87.8067 159.316 86.6723 158.316 85.2857 158.316H82.6387C84.0252 154.441 85.5378 146.816 82.1344 139.191C80.4957 135.441 77.0924 132.191 73.563 129.191C70.1596 126.316 66.126 123.566 62.8487 121.941C62.9748 121.316 63.2268 120.566 63.3529 120.066C63.3529 119.441 63.2269 118.191 62.7227 117.191C62.2185 116.441 61.2101 115.191 60.3278 114.566C59.3194 113.941 58.1849 113.316 57.5546 112.566V111.191C57.6807 110.816 57.9327 110.816 58.0588 110.566C58.1848 110.191 58.1849 110.066 58.1849 109.566C58.1849 109.566 58.1848 108.816 58.0588 108.691C57.9327 108.566 57.5546 108.066 57.4285 108.066L57.1764 106.441C57.4285 106.316 57.5545 106.316 57.6806 105.941C57.9327 105.816 57.9328 105.691 57.9328 105.441C57.9328 105.066 57.9328 104.941 57.5546 104.441C57.5546 104.316 57.4285 104.191 57.1764 104.191L57.0504 102.691L56.6723 90.6909C56.6723 90.6909 56.4201 90.5659 56.2941 90.5659C56.168 90.5659 56.1681 90.6909 56.1681 90.6909L55.5378 102.691V104.191C55.1597 104.191 55.1597 104.316 54.9076 104.441C54.6555 104.941 54.6555 105.066 54.6555 105.441C54.6555 105.691 54.6555 105.691 54.9076 105.941C54.9076 106.316 55.1596 106.316 55.4117 106.441L55.1596 108.066C54.9075 108.066 54.6554 108.566 54.5294 108.691L54.4034 109.441C54.4034 110.066 54.4033 110.191 54.5294 110.441C54.6554 110.691 54.6554 110.691 55.1596 111.066L54.9076 112.566C54.1513 113.316 53.1429 113.941 52.2605 114.566C51.2521 115.066 50.3698 116.316 49.8656 117.191C49.4874 118.191 49.4874 119.441 49.4874 120.066C49.4874 120.441 49.4873 121.191 49.7395 121.941C46.4621 123.566 42.5546 126.316 39.0252 129.191C35.3697 132.191 32.2185 135.441 30.4538 139.191C27.1764 146.941 28.8151 154.566 30.0756 158.316H27.9328C26.4202 158.316 25.4117 159.316 25.4117 160.816C25.4117 162.066 26.4202 163.316 27.9328 163.316H29.8235V170.316V202.191C27.6806 202.691 26.168 204.816 26.168 206.941C26.168 209.441 28.3109 211.691 30.9579 211.691H33.3529L32.8487 285.691H30.9579C28.0588 285.691 25.6638 287.941 25.6638 291.066C25.6638 294.066 28.0588 296.441 30.9579 296.441H32.7226L32.4705 387.566H27.0505C23.8992 387.566 21 390.191 21 393.566C21 396.691 23.7732 399.691 27.0505 399.691H32.2185L31.5882 527.191H81.7563H203.143H465.706H548.143H810.832H1013.14V414.441H1003.69C1005.2 409.191 1006.34 401.316 1002.55 392.816C1000.54 388.566 996.882 384.441 992.218 380.691C988.058 377.316 983.269 374.066 979.109 371.816C979.361 371.441 979.613 370.566 979.613 369.691C979.613 368.566 979.613 367.691 978.983 366.441C978.227 365.191 977.092 363.941 976.21 363.066C974.949 361.941 973.563 361.441 972.932 360.816L972.68 358.816C972.933 358.691 973.185 358.566 973.311 358.191C973.437 357.941 973.563 357.441 973.563 357.191C973.563 356.566 973.437 356.441 973.311 355.816C973.185 355.816 972.933 355.566 972.555 355.191V353.441C972.681 353.316 972.932 353.066 972.932 352.691C972.932 352.566 973.185 352.066 973.185 351.941C973.185 351.441 972.932 351.316 972.932 351.066C972.806 350.816 972.554 350.441 972.176 350.441V348.441L971.42 334.066C971.42 333.816 971.42 333.816 971.168 333.816C971.042 333.816 970.916 333.816 970.916 334.066L970.285 348.441L970.033 350.441C969.781 350.441 969.655 350.816 969.529 351.066C969.529 351.191 969.277 351.441 969.277 351.941C969.277 352.066 969.529 352.441 969.529 352.691C969.655 353.066 969.781 353.316 969.907 353.441L969.781 355.066C969.655 355.441 969.277 355.691 969.151 355.691C969.025 356.316 968.899 356.316 968.899 357.066C968.899 357.316 969.025 357.816 969.025 358.066C969.277 358.441 969.529 358.566 969.655 358.691V360.816C968.521 361.441 967.386 361.941 966.378 363.066C965.117 364.066 963.983 365.191 963.479 366.441C963.101 367.691 962.848 368.566 962.848 369.691C963.101 370.441 963.101 371.316 963.353 371.816C959.571 374.191 954.655 377.316 950.244 380.691C945.832 384.441 941.924 388.566 939.907 392.816C936.252 401.316 937.386 409.191 938.647 414.441H933.479L933.353 361.941H935.748C937.386 361.941 938.395 360.816 938.395 359.316C938.395 357.691 937.26 356.316 935.748 356.316H933.353L933.101 314.566H933.731C935.117 314.566 936.252 313.566 936.252 312.191C936.252 310.691 935.117 309.691 933.731 309.691H933.101L932.596 275.566H933.731C934.991 275.566 936 274.941 936 273.566C936 272.691 935.117 271.816 934.235 271.691V258.316V257.191L934.361 256.941C934.235 256.691 934.235 256.441 934.235 256.316V253.691H935.117C935.874 253.691 936.378 253.441 936.378 252.566C936.378 252.066 935.874 251.316 935.117 251.316H933.857C934.487 249.441 935.37 246.066 933.731 242.566C933.101 240.691 931.462 239.191 929.823 238.066C928.311 236.691 926.546 235.441 924.907 234.566C925.033 234.441 925.033 234.191 925.033 233.816C925.033 233.566 925.033 233.066 924.907 232.816C924.529 232.441 924.277 231.816 923.773 231.441C923.269 231.191 922.638 230.816 922.512 230.566V229.816C922.512 229.566 922.513 229.566 922.639 229.441V229.191C922.639 229.191 922.639 228.941 922.639 228.441C922.513 228.441 922.512 228.191 922.512 228.191L922.386 227.691C922.512 227.691 922.512 227.691 922.512 227.566C922.512 227.566 922.512 227.316 922.512 227.191V226.816C922.512 226.816 922.512 226.691 922.386 226.691V225.691L922.134 220.691C922.134 220.191 921.882 220.191 921.882 220.191C921.882 220.191 921.756 220.191 921.756 220.691L921.378 225.691V226.691C921.252 226.691 921.252 226.691 921.252 226.691C921.126 226.816 921.126 227.066 921.126 227.066C921.126 227.191 921.126 227.441 921.252 227.441C921.252 227.566 921.252 227.566 921.378 227.566L921.252 228.316C921.252 228.316 921.126 228.566 920.874 228.566C920.874 228.941 920.874 229.191 920.874 229.191V229.441C921.126 229.441 921.252 229.441 921.252 229.816V230.566C920.874 230.816 920.622 231.191 919.991 231.441C919.487 231.691 918.983 232.316 918.983 232.816C918.731 233.066 918.731 233.566 918.731 233.816C918.731 234.191 918.731 234.441 918.731 234.566C917.218 235.441 915.454 236.816 913.689 238.066C912.176 239.191 910.664 240.691 910.033 242.566C908.269 245.941 909.277 249.441 909.907 251.316H908.647C907.765 251.316 907.512 251.941 907.512 252.566C907.512 253.316 907.765 253.691 908.647 253.691H909.529V256.816V271.691C908.647 271.816 907.765 272.566 907.765 273.566C907.765 274.941 908.899 275.566 910.159 275.566H911.168L911.042 309.691H910.285C908.899 309.691 907.638 310.691 907.638 312.191C907.638 313.441 908.899 314.566 910.285 314.566H911.168L910.79 356.316H908.395C906.756 356.316 905.748 357.691 905.748 359.316C905.748 360.691 906.882 361.941 908.395 361.941H910.79L910.664 414.441H902.596V405.941H903.731C904.865 405.941 905.874 405.191 905.874 404.191C905.874 402.941 904.865 401.941 903.731 401.941H902.596C904.739 397.191 910.033 381.941 903.101 366.441C900.454 360.316 895.033 354.316 888.857 349.566C882.806 344.691 876 340.316 870.58 337.316C870.958 336.316 871.084 335.191 871.084 334.316C871.462 332.691 871.084 331.191 870.453 329.566C869.571 327.691 868.059 326.191 866.42 324.941C864.781 323.816 863.016 322.941 861.756 322.066L861.63 319.066C862.134 318.941 862.386 318.691 862.638 318.191C862.764 317.691 863.017 317.316 863.017 316.566C863.017 315.941 862.765 315.691 862.386 315.066C862.386 314.566 862.008 314.316 861.252 314.191V311.566C861.63 311.441 861.756 311.191 862.008 310.816C862.134 310.566 862.386 310.066 862.386 309.316C862.386 309.191 862.134 308.816 862.008 308.191C861.63 307.816 861.63 307.566 861 307.566V304.816L860.118 284.941C860.118 284.941 859.865 284.691 859.739 284.691C859.361 284.691 859.235 284.816 859.235 284.941L858.353 304.816V307.566C857.849 307.566 857.47 307.816 857.47 308.191C856.966 308.691 856.966 309.191 856.966 309.316C856.966 309.941 856.966 310.566 857.47 310.816C857.47 311.191 857.596 311.441 857.848 311.566V314.191C857.47 314.441 856.966 314.566 856.84 315.191C856.462 315.816 856.336 316.066 856.336 316.691C856.336 317.441 856.462 317.691 856.714 318.316C856.966 318.816 857.344 319.066 857.47 319.191V322.066C856.084 322.941 854.571 323.816 852.807 324.941C851.042 326.191 849.655 327.691 848.899 329.566C848.269 331.191 847.891 332.691 847.891 334.316C848.269 335.316 848.269 336.316 848.647 337.316C843.101 340.191 836.546 344.691 830.37 349.566C824.319 354.316 818.899 360.316 816.252 366.441C809.445 382.066 814.739 397.191 816.63 401.941H815.622C814.361 401.941 813.227 402.941 813.227 404.191C813.227 405.191 814.361 405.941 815.622 405.941H816V414.441H810.832V370.191H811.084L810.832 347.941V345.941L810.706 334.066H812.722C814.109 334.066 815.117 332.941 815.117 331.816C815.117 330.566 814.109 329.691 812.722 329.691H810.706L810.58 296.316H811.336C812.47 296.316 813.227 295.316 813.227 294.691C813.227 293.441 812.47 292.691 811.336 292.691H810.58V265.566H811.336C812.344 265.566 813.101 264.941 813.101 263.941C813.101 263.066 812.47 262.191 811.84 262.191V257.816V256.941V256.691C811.84 256.441 811.84 256.441 811.84 256.316V254.191H812.47C812.849 254.191 813.227 253.691 813.227 253.441C813.227 252.816 812.849 252.316 812.47 252.316H811.462C811.84 250.816 812.47 248.066 811.336 245.441C810.706 243.941 809.445 242.691 808.185 241.941C806.672 240.566 805.412 239.691 804.151 239.066C804.277 239.066 804.277 238.691 804.277 238.441C804.277 238.316 804.277 237.941 804.151 237.566C804.025 237.066 803.647 236.816 803.395 236.441C802.891 236.191 802.638 236.191 802.26 235.941V235.066C802.386 235.066 802.386 235.066 802.386 234.691C802.386 234.566 802.386 234.316 802.386 234.316L802.26 234.066L802.134 233.691C802.26 233.441 802.26 233.441 802.26 233.441H802.386C802.386 233.191 802.386 233.191 802.386 233.191C802.386 233.066 802.386 233.066 802.26 232.941C802.26 232.941 802.26 232.941 802.134 232.691V232.066L801.882 227.691H801.756H801.63L801.504 232.066V232.441C801.252 232.691 801.252 232.691 801.252 232.691C801.252 232.691 801.126 232.691 801.126 232.941C801.126 232.941 801.252 232.941 801.252 233.191C801.252 233.191 801.252 233.191 801.252 233.441V233.816C801.252 233.816 801.252 234.066 801.126 234.066C801.126 234.066 801.126 234.316 801.126 234.441C801.126 234.816 801.252 234.816 801.252 234.816V235.816C801 235.941 800.496 236.066 800.37 236.316C799.865 236.691 799.613 236.941 799.361 237.441C799.361 237.566 799.361 238.191 799.361 238.316C799.361 238.566 799.361 238.941 799.487 238.941C798.227 239.566 796.84 240.566 795.706 241.816C794.067 242.566 793.059 243.816 792.428 245.316C791.168 247.941 791.798 250.691 792.428 252.191H791.546C791.042 252.191 790.538 252.691 790.538 253.316C790.538 253.566 791.042 254.066 791.546 254.066H792.05V256.566V262.066C791.546 262.066 791.042 262.816 791.042 263.816C791.042 264.816 791.672 265.441 792.554 265.441H793.437V265.566ZM147.429 311.691H150.202V308.441C150.202 308.441 150.202 308.316 149.824 308.191C149.697 307.691 149.824 307.566 149.824 307.316C150.454 305.566 148.437 305.316 147.429 304.566C146.798 305.191 146.924 306.191 147.555 307.316C147.555 307.566 147.555 307.691 147.429 308.191C147.303 308.191 147.302 308.441 147.302 308.441V311.691H147.429ZM153.479 311.691H160.16V308.441C160.16 308.441 160.16 308.316 159.781 308.191C159.403 307.691 159.781 307.566 159.781 307.316C160.412 305.066 157.134 305.316 156.882 303.941C156.378 305.316 152.975 305.191 153.857 307.316C153.983 307.566 154.109 307.691 153.857 308.191C153.605 308.191 153.605 308.441 153.605 308.441V311.691H153.479ZM163.311 311.691H166.084V308.441C166.084 308.441 166.084 308.316 165.706 308.191C165.58 307.691 165.706 307.566 165.706 307.316C166.21 306.191 166.336 305.066 165.706 304.566C164.697 305.316 162.807 305.691 163.437 307.316C163.437 307.566 163.437 307.691 163.311 308.191C163.059 308.191 163.185 308.441 163.185 308.441V311.691H163.311ZM463.563 315.441H466.21V312.316C466.21 312.316 466.336 312.066 466.21 311.566C465.832 311.566 465.958 311.441 466.21 310.816C466.588 309.316 464.823 308.941 463.689 308.191C463.185 308.816 463.311 309.691 463.689 310.816C463.941 311.441 463.941 311.566 463.689 311.566C463.437 312.066 463.437 312.316 463.437 312.316V315.441H463.563ZM469.739 315.441H476.042V312.316C476.042 312.316 476.042 312.066 476.042 311.566C475.664 311.566 475.664 311.441 475.79 310.816C476.546 308.941 473.143 308.941 472.891 307.566C472.513 308.941 469.361 308.941 469.865 310.816C470.118 311.441 470.118 311.566 469.865 311.566C469.613 312.066 469.865 312.316 469.865 312.316V315.441H469.739ZM479.445 315.441H482.218V312.316C482.218 312.316 482.218 312.066 482.092 311.566C481.84 311.566 481.84 311.441 482.092 310.816C482.597 309.816 482.723 308.941 482.092 308.191C481.084 308.816 479.193 309.191 479.697 310.816C479.697 311.441 479.949 311.566 479.697 311.566C479.193 312.066 479.319 312.316 479.319 312.316V315.441H479.445ZM595.538 345.941H592.512V338.441C592.512 338.441 592.386 338.066 592.765 337.816C592.891 337.441 592.891 337.191 592.765 336.691C591.882 335.066 594.277 334.691 595.412 333.816C596.042 334.441 595.916 335.316 595.412 336.691C595.286 337.191 595.286 337.316 595.412 337.816C595.664 337.941 595.664 338.441 595.664 338.441V345.941H595.538ZM588.731 345.941H581.546V338.441C581.546 338.441 581.546 338.066 581.672 337.816C581.924 337.441 581.798 337.191 581.672 336.691C581.042 334.316 584.697 334.316 585.075 332.941C585.58 334.441 589.109 334.441 588.227 336.691C588.101 337.191 587.975 337.316 588.227 337.816C588.605 337.941 588.605 338.441 588.605 338.441V345.941H588.731ZM577.638 345.941H574.739V338.441C574.739 338.441 574.613 338.066 575.117 337.816C575.244 337.441 575.117 337.191 575.117 336.691C574.613 335.316 574.487 334.316 575.117 333.816C576.252 334.691 578.143 335.191 577.638 336.691C577.638 337.191 577.512 337.316 577.765 337.816C577.765 337.941 577.765 338.441 577.765 338.441V345.941H577.638ZM784.487 345.941H781.336V338.441C781.336 338.441 781.336 338.066 781.588 337.816C781.84 337.441 781.714 337.191 781.588 336.691C780.958 335.066 782.975 334.691 784.235 333.816C784.865 334.441 784.739 335.316 784.235 336.691C784.235 337.191 784.109 337.316 784.361 337.816C784.613 337.941 784.613 338.441 784.613 338.441V345.941H784.487ZM777.554 345.941H770.37V338.441C770.37 338.441 770.37 338.066 770.496 337.816C770.874 337.441 770.874 337.191 770.748 336.691C769.739 334.316 773.521 334.316 773.773 332.941C774.403 334.441 777.933 334.441 777.176 336.691C777.176 337.191 776.798 337.316 777.176 337.816C777.428 337.941 777.428 338.441 777.428 338.441V345.941H777.554ZM766.714 345.941H763.563V338.441C763.563 338.441 763.563 338.066 763.815 337.816C764.067 337.441 764.067 337.191 763.815 336.691C763.563 335.316 763.059 334.316 763.815 333.816C765.076 334.691 766.966 335.191 766.462 336.691C766.21 337.191 766.21 337.316 766.462 337.816C766.714 337.941 766.714 338.441 766.714 338.441V345.941ZM30.9579 202.066H38.521V176.566C38.521 176.566 38.8992 175.816 38.0168 175.066C37.3866 174.316 37.6387 173.441 38.0168 172.691C39.6555 168.441 34.4874 167.566 31.4622 165.441C29.8236 167.191 30.4538 169.691 31.4622 172.691C31.8404 173.441 32.3446 174.316 31.4622 175.066C30.832 175.816 30.9579 176.566 30.9579 176.566V202.066ZM47.5966 202.066H65.3698V176.566C65.3698 176.566 65.6218 175.816 64.8655 175.066C64.1092 174.316 64.3613 173.441 64.6134 172.691C66.8823 167.191 57.5546 167.441 56.5462 163.316C55.6638 167.441 46.4622 167.191 48.3529 172.691C48.8571 173.441 49.1092 174.316 48.3529 175.066C47.5966 175.816 47.7227 176.566 47.7227 176.566V202.066H47.5966ZM74.3194 202.066H82.2605V176.566C82.2605 176.566 82.3866 175.816 81.7563 175.066C80.874 174.316 81.3781 173.441 81.6302 172.691C82.7647 169.691 83.2689 167.191 81.7563 165.441C78.8572 167.691 73.6891 168.316 75.2017 172.691C75.4538 173.441 75.8319 174.316 74.8235 175.066C74.3193 175.816 74.3194 176.566 74.3194 176.566V202.066ZM910.412 271.441H913.689V259.816C913.689 259.816 913.815 259.691 913.563 259.066C913.437 258.816 913.437 258.441 913.563 258.066C914.193 255.941 911.798 255.566 910.412 254.941C909.907 255.441 910.034 256.566 910.412 258.066C910.79 258.316 910.79 258.691 910.412 259.066C910.286 259.566 910.412 259.816 910.412 259.816V271.441ZM917.849 271.441H926.042V259.816C926.042 259.816 926.042 259.691 925.79 259.066C925.412 258.816 925.538 258.441 925.79 258.066C926.546 255.441 922.512 255.566 921.882 253.691C921.378 255.566 917.218 255.441 918.353 258.066C918.353 258.316 918.479 258.691 918.101 259.066C917.849 259.566 917.849 259.816 917.849 259.816V271.441ZM930.328 271.441H933.731V259.816C933.731 259.816 933.857 259.691 933.353 259.066C933.227 258.816 933.227 258.441 933.353 258.066C933.857 256.441 934.235 255.441 933.353 254.941C932.218 255.691 929.823 256.066 930.706 258.066C930.706 258.316 930.832 258.691 930.706 259.066C930.201 259.566 930.328 259.816 930.328 259.816V271.441ZM636.63 345.941H631.588V341.816C631.588 341.816 631.588 341.566 632.092 341.066C632.218 340.316 632.218 339.941 632.092 339.566C631.084 336.816 634.487 336.316 636.126 335.191C637.134 336.066 636.756 337.691 636.126 339.566C636.126 339.941 635.748 340.316 636.252 341.066C636.756 341.566 636.63 341.816 636.63 341.816V345.941ZM625.916 345.941H614.571V341.816C614.571 341.816 614.571 341.566 615.076 341.066C615.454 340.316 615.328 339.941 615.076 339.566C613.689 336.066 619.613 336.066 620.244 333.566C620.874 336.066 626.798 336.066 625.411 339.566C625.159 339.941 625.034 340.316 625.538 341.066C626.042 341.566 625.916 341.816 625.916 341.816V345.941ZM609.025 345.941H604.109V341.816C604.109 341.816 604.109 341.566 604.613 341.066C604.865 340.316 604.739 339.941 604.613 339.566C603.731 337.566 603.479 336.066 604.613 335.191C606.378 336.316 609.529 336.816 608.395 339.566C608.269 339.941 607.891 340.316 608.773 341.066C609.025 341.566 609.025 341.816 609.025 341.816V345.941ZM754.991 345.941H750.202V341.816C750.202 341.816 749.949 341.566 750.454 341.066C750.832 340.316 750.706 339.941 750.454 339.566C749.571 336.816 752.849 336.316 754.739 335.191C755.622 336.066 755.244 337.691 754.739 339.566C754.361 339.941 754.235 340.316 754.739 341.066C754.991 341.566 754.991 341.816 754.991 341.816V345.941ZM744.403 345.941H733.185V341.816C733.185 341.816 733.059 341.566 733.311 341.066C734.067 340.316 733.689 339.941 733.563 339.566C732.176 336.066 737.975 336.066 738.605 333.566C739.235 336.191 745.159 336.191 744.025 339.566C743.773 339.941 743.521 340.316 744.025 341.066C744.403 341.566 744.403 341.816 744.403 341.816V345.941ZM727.26 345.941H722.47V341.816C722.47 341.816 722.47 341.566 722.596 341.066C723.353 340.316 723.101 339.941 722.975 339.566C722.344 337.566 721.84 336.066 722.975 335.191C724.739 336.316 727.891 336.816 726.882 339.566C726.63 339.941 726.504 340.316 727.008 341.066C727.513 341.566 727.26 341.816 727.26 341.816V345.941ZM545.496 230.566H549.025V218.691C549.025 218.691 549.025 218.566 548.773 217.941C548.521 217.691 548.773 217.566 548.773 216.941C549.403 214.941 546.882 214.691 545.874 213.816C545.117 214.566 545.37 215.691 545.874 216.941C546.126 217.566 546.126 217.691 545.874 217.941C545.37 218.441 545.496 218.691 545.496 218.691V230.566ZM553.185 230.566H561.378V218.691C561.378 218.691 561.378 218.566 561 217.941C560.874 217.691 561 217.566 561 216.941C561.756 214.441 557.723 214.691 557.344 212.691C556.84 214.691 552.68 214.441 553.563 216.941C553.563 217.566 553.815 217.691 553.437 217.941C553.185 218.441 553.185 218.691 553.185 218.691V230.566ZM565.286 230.566H568.941V218.691C568.941 218.691 569.067 218.566 568.689 217.941C568.437 217.691 568.437 217.566 568.689 216.941C569.193 215.691 569.319 214.441 568.689 213.816C567.428 214.816 565.16 215.066 565.664 216.941C565.79 217.566 566.042 217.691 565.664 217.941C565.286 218.441 565.286 218.691 565.286 218.691V230.566ZM417.05 263.066C417.176 263.441 417.555 263.566 417.681 264.066V263.066H417.05ZM416.798 134.066H421.966V128.441C421.966 128.441 422.092 127.941 421.588 127.066C420.958 126.816 421.336 126.441 421.462 125.691C422.597 123.066 419.067 122.566 417.302 120.941C416.168 122.316 416.672 123.816 417.302 125.691C417.681 126.316 417.807 126.691 417.176 127.066C416.798 127.941 416.798 128.441 416.798 128.441V134.066ZM427.765 134.066H439.235V128.441C439.235 128.441 439.235 127.941 439.109 127.066C438.731 126.816 438.983 126.441 438.983 125.691C440.37 122.316 434.319 122.316 433.689 119.566H433.563C432.681 122.316 426.882 122.316 428.269 125.691C428.395 126.316 428.521 126.691 428.143 127.066C427.765 127.941 427.765 128.441 427.765 128.441V134.066ZM445.538 134.066H450.454V128.441C450.454 128.441 450.454 127.941 449.949 127.066C449.697 126.816 449.697 126.441 449.949 125.691C450.58 123.816 450.958 121.941 449.949 120.941C448.059 122.566 444.907 123.066 445.79 125.691C445.79 126.316 446.168 126.691 445.79 127.066C445.16 127.941 445.538 128.441 445.538 128.441V134.066ZM792.428 262.191H795.201V259.066C795.201 259.066 795.201 258.816 795.075 258.441C794.949 258.441 794.949 257.941 795.075 257.691C795.58 256.066 793.437 255.941 792.681 255.191C791.798 255.691 792.176 256.566 792.681 257.691C792.807 257.941 792.807 258.441 792.681 258.441C792.176 258.816 792.302 259.066 792.302 259.066V262.191H792.428ZM798.731 262.191H804.907V259.066C804.907 259.066 805.16 258.816 804.907 258.441C804.781 258.441 804.781 257.941 804.907 257.691C805.538 255.691 802.26 255.691 801.882 254.316C801.63 255.691 798.353 255.691 798.983 257.691C799.109 257.941 799.109 258.441 798.983 258.441C798.857 258.816 798.857 259.066 798.857 259.066V262.191H798.731ZM808.437 262.191H811.21V259.066C811.21 259.066 811.21 258.816 811.084 258.441C810.58 258.441 810.706 257.941 810.958 257.691C811.336 256.566 811.714 255.566 810.958 255.191C809.949 255.691 808.185 256.066 808.689 257.691C808.689 257.941 808.815 258.441 808.563 258.441C808.185 258.816 808.311 259.066 808.311 259.066V262.191H808.437Z" fill="#3A1302"/>
</g>
<defs>
<linearGradient id="paint0_linear_2_80" x1="470.5" y1="-69" x2="317" y2="521.5" gradientUnits="userSpaceOnUse">
<stop stop-color="#C4C4C4"/>
<stop offset="0.837938" stop-color="#C4C4C4" stop-opacity="0"/>
</linearGradient>
</defs>
</svg>
