<svg width="945" height="68" viewBox="0 0 945 68" fill="none" xmlns="http://www.w3.org/2000/svg">
<path d="M41.724 50.084C41.172 51.8013 40.6507 53.672 40.16 55.696C39.6693 57.6587 38.9947 59.4987 38.136 61.216C37.2773 62.9333 36.1427 64.3747 34.732 65.54C33.3213 66.644 31.42 67.196 29.028 67.196C27.9853 67.196 26.9733 67.2267 25.992 67.288C25.072 67.3493 24.2133 66.9507 23.416 66.092C22.7413 65.2947 22.22 64.4053 21.852 63.424C20.564 59.376 19.1227 55.4507 17.528 51.648C15.9947 47.784 14.2467 43.9507 12.284 40.148C12.4067 44.6867 12.284 49.1947 11.916 53.672C11.548 58.1493 11.088 62.6267 10.536 67.104C8.88 66.9813 7.224 66.828 5.568 66.644C3.912 66.5213 2.256 66.3067 0.6 66C1.152 61.5227 1.45867 57.0453 1.52 52.568C1.58133 48.0907 1.58133 43.6133 1.52 39.136C1.45867 34.6587 1.45867 30.1813 1.52 25.704C1.64267 21.2267 2.01067 16.78 2.624 12.364C4.89333 13.5293 7.10133 14.7253 9.248 15.952C11.456 17.1787 13.664 18.4053 15.872 19.632C15.504 19.816 15.044 20.0307 14.492 20.276C14.0013 20.5213 13.5107 20.828 13.02 21.196C12.5907 21.5027 12.192 21.8707 11.824 22.3C11.5173 22.7293 11.3333 23.1893 11.272 23.68C11.2107 24.232 11.18 24.784 11.18 25.336C11.2413 25.888 11.2107 26.44 11.088 26.992C10.9653 27.912 10.9347 28.8627 10.996 29.844C11.0573 30.8253 11.3947 31.684 12.008 32.42C12.6213 33.2173 13.388 33.8613 14.308 34.352C15.228 34.7813 16.2093 35.0573 17.252 35.18C18.2947 35.3027 19.3067 35.272 20.288 35.088C21.3307 34.904 22.2813 34.536 23.14 33.984C24.428 33.1867 25.5013 32.0213 26.36 30.488C27.28 28.9547 27.9547 27.268 28.384 25.428C28.8133 23.588 28.9973 21.7173 28.936 19.816C28.8747 17.9147 28.5373 16.1667 27.924 14.572C27.372 12.9773 26.544 11.6587 25.44 10.616C24.336 9.512 22.9253 8.868 21.208 8.684C20.2267 8.56133 19.276 8.71467 18.356 9.144C17.4973 9.512 16.7307 10.0333 16.056 10.708C15.3813 11.3827 14.9213 12.2107 14.676 13.192C14.4307 14.112 14.4613 15.032 14.768 15.952C13.48 15.3387 12.744 14.204 12.56 12.548C12.376 10.8307 12.7133 9.11333 13.572 7.396C14.492 5.61733 15.9027 4.11466 17.804 2.888C19.7053 1.66133 22.0973 1.17066 24.98 1.416C26.084 1.53866 27.1573 1.784 28.2 2.152C29.304 2.52 30.316 3.04133 31.236 3.716C32.6467 4.82 33.7813 6.07733 34.64 7.488C35.56 8.89866 36.2653 10.4013 36.756 11.996C37.2467 13.5293 37.584 15.1547 37.768 16.872C37.952 18.5893 38.044 20.276 38.044 21.932C38.044 23.22 38.0133 24.4773 37.952 25.704C37.952 26.9307 37.7987 28.188 37.492 29.476C36.4493 34.3827 34.272 38.124 30.96 40.7C27.7093 43.2147 23.508 43.9507 18.356 42.908C19.3987 44.3187 20.3493 45.76 21.208 47.232C22.0667 48.704 22.9253 50.2067 23.784 51.74C24.336 52.7827 25.1947 53.488 26.36 53.856C27.3413 54.224 28.4453 54.3467 29.672 54.224C31.7573 54.1627 33.3213 54.132 34.364 54.132C35.4067 54.132 36.2347 54.04 36.848 53.856C37.5227 53.672 38.1667 53.304 38.78 52.752C39.4547 52.2 40.436 51.3107 41.724 50.084ZM116.351 53.856C116.106 55.328 115.554 56.8 114.695 58.272C113.898 59.6827 112.886 60.9707 111.659 62.136C110.432 63.3013 109.083 64.2827 107.611 65.08C106.139 65.8773 104.636 66.3373 103.103 66.46C102.06 66.5827 100.956 66.6133 99.7911 66.552C98.6871 66.552 97.6138 66.552 96.5711 66.552C95.5284 66.552 94.3018 66.5827 92.8911 66.644C91.4804 66.7053 90.0698 66.6747 88.6591 66.552C87.2484 66.4907 85.8991 66.3067 84.6111 66C83.3844 65.632 82.3724 65.0187 81.5751 64.16C81.2071 63.792 80.8698 63.3013 80.5631 62.688C80.3178 62.0747 80.1031 61.4307 79.9191 60.756C79.7351 60.0813 79.5511 59.4067 79.3671 58.732C79.1831 58.0573 78.9991 57.444 78.8151 56.892H78.6311C76.4844 59.652 73.8164 61.8907 70.6271 63.608C67.4378 65.264 64.0951 66.1227 60.5991 66.184C58.8818 66.184 57.5324 65.5707 56.5511 64.344C55.5084 63.1173 55.1098 61.676 55.3551 60.02C55.6004 58.6707 55.8151 57.3827 55.9991 56.156C56.2444 54.868 56.5204 53.5493 56.8271 52.2C57.3791 49.992 58.3911 48.06 59.8631 46.404C61.3964 44.6867 63.1444 43.184 65.1071 41.896C67.0698 40.608 69.1551 39.5347 71.3631 38.676C73.5711 37.756 75.6871 36.9893 77.7111 36.376C78.0791 37.2347 78.4778 38.0933 78.9071 38.952C79.3978 39.8107 79.9498 40.6387 80.5631 41.436C81.9738 40.5773 83.3844 39.78 84.7951 39.044C86.2058 38.2467 87.6164 37.4187 89.0271 36.56H89.3031C88.6284 37.7867 87.9844 39.32 87.3711 41.16C86.7578 42.9387 86.3284 44.7787 86.0831 46.68C85.8991 48.5813 85.9911 50.3907 86.3591 52.108C86.7271 53.764 87.5551 55.0827 88.8431 56.064C89.6404 56.6773 90.5911 57.1067 91.6951 57.352C92.7991 57.536 93.9338 57.6587 95.0991 57.72C96.2644 57.72 97.4298 57.6893 98.5951 57.628C99.7604 57.5667 100.834 57.536 101.815 57.536C103.164 57.536 104.483 57.5667 105.771 57.628C107.12 57.6893 108.408 57.628 109.635 57.444C110.862 57.26 112.027 56.9227 113.131 56.432C114.235 55.88 115.308 55.0213 116.351 53.856ZM78.6311 43.828C77.1591 44.2573 75.6258 44.8093 74.0311 45.484C72.4978 46.1587 71.0258 46.9867 69.6151 47.968C68.2044 48.888 66.9471 49.992 65.8431 51.28C64.8004 52.5067 64.0644 53.9173 63.6351 55.512V55.604L64.3711 56.432L65.3831 56.616C66.9164 56.1253 68.2658 55.42 69.4311 54.5C70.6578 53.5187 71.7618 52.4453 72.7431 51.28C73.7858 50.0533 74.7671 48.796 75.6871 47.508C76.6071 46.1587 77.5884 44.932 78.6311 43.828ZM200.556 39.044C199.82 39.7187 199.084 40.3627 198.348 40.976C197.612 41.5893 196.845 42.172 196.048 42.724C194.882 41.4973 193.809 40.24 192.828 38.952L197.704 35.088C198.194 35.7627 198.685 36.4373 199.176 37.112C199.666 37.7253 200.126 38.3693 200.556 39.044ZM190.16 38.86C189.424 39.5347 188.657 40.1787 187.86 40.792C187.062 41.4053 186.265 42.0493 185.468 42.724C184.977 42.0493 184.456 41.4053 183.904 40.792C183.413 40.1787 182.953 39.504 182.524 38.768C183.382 38.1547 184.21 37.5413 185.008 36.928C185.866 36.3147 186.725 35.6707 187.584 34.996C188.013 35.6707 188.442 36.3147 188.872 36.928C189.301 37.5413 189.73 38.1853 190.16 38.86ZM210.952 53.948C210.093 56.34 208.774 58.548 206.996 60.572C205.278 62.5347 203.254 64.0373 200.924 65.08C199.513 65.7547 197.55 66.2147 195.036 66.46C192.582 66.7053 189.945 66.828 187.124 66.828C184.364 66.8893 181.634 66.8587 178.936 66.736C176.298 66.6747 174.121 66.6747 172.404 66.736C171.484 66.736 170.564 66.644 169.644 66.46C168.785 66.276 167.988 65.8467 167.252 65.172C166.209 64.252 165.412 63.2093 164.86 62.044C164.308 60.8787 163.848 59.6213 163.48 58.272C163.173 56.9227 162.958 55.5733 162.836 54.224C162.713 52.8747 162.56 51.556 162.376 50.268H162.192C161.272 51.6173 160.168 53.028 158.88 54.5C157.592 55.972 156.242 57.4133 154.832 58.824C153.421 60.1733 151.949 61.492 150.416 62.78C148.944 64.0067 147.533 65.08 146.184 66C145.754 66.3067 145.294 66.46 144.804 66.46C144.374 66.46 143.976 66.276 143.608 65.908C145.693 60.8787 146.122 55.7573 144.896 50.544C144.466 51.2187 143.577 52.4147 142.228 54.132C140.878 55.788 139.406 57.5053 137.812 59.284C136.278 61.0013 134.776 62.5347 133.304 63.884C131.832 65.172 130.758 65.816 130.084 65.816C129.716 65.816 129.225 65.8773 128.612 66C128.55 65.5707 128.581 65.08 128.704 64.528C128.888 63.9147 129.072 63.2707 129.256 62.596C129.44 61.86 129.624 61.1547 129.808 60.48C129.992 59.744 130.084 59.0693 130.084 58.456C130.084 56.984 130.022 55.4813 129.9 53.948C129.777 52.3533 129.716 50.7893 129.716 49.256C129.716 47.6613 129.808 46.128 129.992 44.656C130.237 43.1227 130.697 41.712 131.372 40.424C133.212 39.0747 135.082 37.848 136.984 36.744C138.885 35.5787 140.786 34.3827 142.688 33.156C140.786 35.3027 139.069 37.664 137.536 40.24C136.002 42.7547 135.144 45.484 134.96 48.428C135.696 47.4467 136.769 46.22 138.18 44.748C139.652 43.276 141.216 41.8347 142.872 40.424C144.528 39.0133 146.184 37.7867 147.84 36.744C149.496 35.7013 150.937 35.1187 152.164 34.996C152.777 34.9347 153.268 35.2107 153.636 35.824C153.758 36.192 153.789 36.4987 153.728 36.744C153.666 36.928 153.544 37.1733 153.36 37.48C152.317 39.0747 151.642 40.884 151.336 42.908C151.09 44.8707 150.968 46.772 150.968 48.612C151.826 47.8147 152.869 46.8027 154.096 45.576C155.384 44.3493 156.702 43.1533 158.052 41.988C159.462 40.8227 160.842 39.8107 162.192 38.952C163.602 38.032 164.89 37.48 166.056 37.296C166.73 37.2347 167.282 37.48 167.712 38.032C167.957 38.3387 168.08 38.6147 168.08 38.86C168.141 39.1053 168.11 39.412 167.988 39.78C167.742 40.884 167.589 42.2027 167.528 43.736C167.528 45.2693 167.65 46.8333 167.896 48.428C168.202 49.9613 168.632 51.4333 169.184 52.844C169.797 54.1933 170.564 55.236 171.484 55.972C172.772 57.076 174.366 57.628 176.268 57.628C178.598 57.5667 180.898 57.536 183.168 57.536C185.498 57.536 187.829 57.536 190.16 57.536C192.368 57.5973 194.668 57.6587 197.06 57.72C199.452 57.7813 201.752 57.6893 203.96 57.444C205.125 57.3213 206.352 56.892 207.64 56.156C208.989 55.42 210.093 54.684 210.952 53.948ZM283.982 53.856C283.736 55.328 283.184 56.8 282.326 58.272C281.528 59.6827 280.516 60.9707 279.29 62.136C278.063 63.3013 276.714 64.2827 275.242 65.08C273.77 65.8773 272.267 66.3373 270.734 66.46C269.691 66.5827 268.587 66.6133 267.422 66.552C266.318 66.552 265.244 66.552 264.202 66.552C263.159 66.552 261.932 66.5827 260.522 66.644C259.111 66.7053 257.7 66.6747 256.29 66.552C254.879 66.4907 253.53 66.3067 252.242 66C251.015 65.632 250.003 65.0187 249.206 64.16C248.838 63.792 248.5 63.3013 248.194 62.688C247.948 62.0747 247.734 61.4307 247.55 60.756C247.366 60.0813 247.182 59.4067 246.998 58.732C246.814 58.0573 246.63 57.444 246.446 56.892H246.262C244.115 59.652 241.447 61.8907 238.258 63.608C235.068 65.264 231.726 66.1227 228.23 66.184C226.512 66.184 225.163 65.5707 224.182 64.344C223.139 63.1173 222.74 61.676 222.986 60.02C223.231 58.6707 223.446 57.3827 223.63 56.156C223.875 54.868 224.151 53.5493 224.458 52.2C225.01 49.992 226.022 48.06 227.494 46.404C229.027 44.6867 230.775 43.184 232.738 41.896C234.7 40.608 236.786 39.5347 238.994 38.676C241.202 37.756 243.318 36.9893 245.342 36.376C245.71 37.2347 246.108 38.0933 246.538 38.952C247.028 39.8107 247.58 40.6387 248.194 41.436C249.604 40.5773 251.015 39.78 252.426 39.044C253.836 38.2467 255.247 37.4187 256.658 36.56H256.934C256.259 37.7867 255.615 39.32 255.002 41.16C254.388 42.9387 253.959 44.7787 253.714 46.68C253.53 48.5813 253.622 50.3907 253.99 52.108C254.358 53.764 255.186 55.0827 256.474 56.064C257.271 56.6773 258.222 57.1067 259.326 57.352C260.43 57.536 261.564 57.6587 262.73 57.72C263.895 57.72 265.06 57.6893 266.226 57.628C267.391 57.5667 268.464 57.536 269.446 57.536C270.795 57.536 272.114 57.5667 273.402 57.628C274.751 57.6893 276.039 57.628 277.266 57.444C278.492 57.26 279.658 56.9227 280.762 56.432C281.866 55.88 282.939 55.0213 283.982 53.856ZM246.262 43.828C244.79 44.2573 243.256 44.8093 241.662 45.484C240.128 46.1587 238.656 46.9867 237.246 47.968C235.835 48.888 234.578 49.992 233.474 51.28C232.431 52.5067 231.695 53.9173 231.266 55.512V55.604L232.002 56.432L233.014 56.616C234.547 56.1253 235.896 55.42 237.062 54.5C238.288 53.5187 239.392 52.4453 240.374 51.28C241.416 50.0533 242.398 48.796 243.318 47.508C244.238 46.1587 245.219 44.932 246.262 43.828ZM320.064 9.604C319.941 12.6093 319.88 15.584 319.88 18.528C319.88 21.472 319.88 24.4467 319.88 27.452C319.88 29.292 319.941 31.4693 320.064 33.984C320.186 36.4373 320.217 39.0133 320.156 41.712C320.094 44.4107 319.88 47.14 319.512 49.9C319.205 52.5987 318.622 55.1133 317.764 57.444C316.905 59.7747 315.74 61.8293 314.268 63.608C312.857 65.3867 311.017 66.6747 308.748 67.472C306.356 66.9813 304.393 66 302.86 64.528C301.388 63.056 300.192 61.3693 299.272 59.468C298.413 57.5053 297.769 55.42 297.34 53.212C296.972 51.004 296.696 48.888 296.512 46.864C296.45 46.1893 296.42 45.576 296.42 45.024C296.481 44.472 296.604 43.8587 296.788 43.184C297.34 41.4667 298.321 40.0253 299.732 38.86C301.204 37.6333 302.921 37.1427 304.884 37.388C305.374 38.2467 305.865 39.1053 306.356 39.964C306.908 40.8227 307.398 41.712 307.828 42.632C306.478 42.632 305.374 43 304.516 43.736C303.718 44.472 303.136 45.392 302.768 46.496C302.461 47.6 302.338 48.796 302.4 50.084C302.522 51.372 302.829 52.5987 303.32 53.764C303.872 54.9293 304.577 55.9413 305.436 56.8C306.356 57.6587 307.398 58.18 308.564 58.364C309.3 58.1187 309.852 57.7507 310.22 57.26C310.588 56.708 310.864 56.0947 311.048 55.42C311.293 54.5613 311.446 53.396 311.508 51.924C311.63 50.452 311.692 48.9187 311.692 47.324C311.753 45.668 311.753 44.0733 311.692 42.54C311.692 41.0067 311.692 39.7493 311.692 38.768C311.569 32.5733 311.477 26.4093 311.416 20.276C311.354 14.0813 311.569 7.856 312.06 1.6L320.064 9.604ZM395.46 53.856C395.214 55.328 394.662 56.8 393.804 58.272C393.006 59.6827 391.994 60.9707 390.768 62.136C389.541 63.3013 388.192 64.2827 386.72 65.08C385.248 65.8773 383.745 66.3373 382.212 66.46C381.169 66.5827 380.065 66.6133 378.9 66.552C377.796 66.552 376.722 66.552 375.68 66.552C374.637 66.552 373.41 66.5827 372 66.644C370.589 66.7053 369.178 66.6747 367.768 66.552C366.357 66.4907 365.008 66.3067 363.72 66C362.493 65.632 361.481 65.0187 360.684 64.16C360.316 63.792 359.978 63.3013 359.672 62.688C359.426 62.0747 359.212 61.4307 359.028 60.756C358.844 60.0813 358.66 59.4067 358.476 58.732C358.292 58.0573 358.108 57.444 357.924 56.892H357.74C355.593 59.652 352.925 61.8907 349.736 63.608C346.546 65.264 343.204 66.1227 339.708 66.184C337.99 66.184 336.641 65.5707 335.66 64.344C334.617 63.1173 334.218 61.676 334.464 60.02C334.709 58.6707 334.924 57.3827 335.108 56.156C335.353 54.868 335.629 53.5493 335.936 52.2C336.488 49.992 337.5 48.06 338.972 46.404C340.505 44.6867 342.253 43.184 344.216 41.896C346.178 40.608 348.264 39.5347 350.472 38.676C352.68 37.756 354.796 36.9893 356.82 36.376C357.188 37.2347 357.586 38.0933 358.016 38.952C358.506 39.8107 359.058 40.6387 359.672 41.436C361.082 40.5773 362.493 39.78 363.904 39.044C365.314 38.2467 366.725 37.4187 368.136 36.56H368.412C367.737 37.7867 367.093 39.32 366.48 41.16C365.866 42.9387 365.437 44.7787 365.192 46.68C365.008 48.5813 365.1 50.3907 365.468 52.108C365.836 53.764 366.664 55.0827 367.952 56.064C368.749 56.6773 369.7 57.1067 370.804 57.352C371.908 57.536 373.042 57.6587 374.208 57.72C375.373 57.72 376.538 57.6893 377.704 57.628C378.869 57.5667 379.942 57.536 380.924 57.536C382.273 57.536 383.592 57.5667 384.88 57.628C386.229 57.6893 387.517 57.628 388.744 57.444C389.97 57.26 391.136 56.9227 392.24 56.432C393.344 55.88 394.417 55.0213 395.46 53.856ZM357.74 43.828C356.268 44.2573 354.734 44.8093 353.14 45.484C351.606 46.1587 350.134 46.9867 348.724 47.968C347.313 48.888 346.056 49.992 344.952 51.28C343.909 52.5067 343.173 53.9173 342.744 55.512V55.604L343.48 56.432L344.492 56.616C346.025 56.1253 347.374 55.42 348.54 54.5C349.766 53.5187 350.87 52.4453 351.852 51.28C352.894 50.0533 353.876 48.796 354.796 47.508C355.716 46.1587 356.697 44.932 357.74 43.828ZM455.821 39.32C455.146 39.9947 454.441 40.6387 453.705 41.252C452.969 41.8653 452.264 42.5093 451.589 43.184C451.098 42.448 450.516 41.7733 449.841 41.16C449.166 40.5467 448.553 39.9027 448.001 39.228C448.798 38.6147 449.534 37.9707 450.209 37.296C450.884 36.6213 451.62 36.008 452.417 35.456C453.092 36.0693 453.644 36.744 454.073 37.48C454.564 38.216 455.146 38.8293 455.821 39.32ZM466.033 53.948C465.665 55.3587 465.052 56.7693 464.193 58.18C463.396 59.5907 462.445 60.8787 461.341 62.044C460.237 63.2093 458.98 64.2213 457.569 65.08C456.22 65.8773 454.809 66.368 453.337 66.552C452.233 66.6747 451.098 66.736 449.933 66.736C448.768 66.736 447.633 66.736 446.529 66.736C445.67 66.736 444.689 66.7667 443.585 66.828C442.481 66.8893 441.377 66.92 440.273 66.92C439.169 66.92 438.096 66.828 437.053 66.644C436.01 66.5213 435.152 66.2453 434.477 65.816C433.373 65.08 432.422 64.16 431.625 63.056C430.828 61.952 430.184 60.7253 429.693 59.376C429.202 58.0267 428.865 56.6773 428.681 55.328C428.558 53.9173 428.589 52.568 428.773 51.28H428.497C428.129 51.648 427.485 52.292 426.565 53.212C425.706 54.0707 424.694 55.052 423.529 56.156C422.425 57.1987 421.229 58.3027 419.941 59.468C418.653 60.572 417.426 61.6147 416.261 62.596C415.157 63.516 414.145 64.2827 413.225 64.896C412.305 65.5093 411.661 65.816 411.293 65.816C410.741 65.7547 410.158 65.7547 409.545 65.816C409.116 65.5093 408.778 65.172 408.533 64.804C408.288 64.3747 408.226 63.884 408.349 63.332C408.901 61.1853 409.146 59.0387 409.085 56.892C409.024 54.684 408.932 52.476 408.809 50.268C408.748 48.06 408.748 45.8827 408.809 43.736C408.87 41.528 409.269 39.3813 410.005 37.296C411.6 36.0693 413.194 34.8427 414.789 33.616C416.384 32.3893 418.009 31.1933 419.665 30.028C417.825 33.156 416.506 36.4987 415.709 40.056C414.912 43.552 414.666 47.1093 414.973 50.728C415.341 50.2987 415.954 49.624 416.813 48.704C417.733 47.7227 418.745 46.68 419.849 45.576C420.953 44.4107 422.118 43.2453 423.345 42.08C424.633 40.9147 425.86 39.9333 427.025 39.136C428.252 38.3387 429.356 37.8173 430.337 37.572C431.318 37.2653 432.116 37.4187 432.729 38.032C433.036 38.3387 433.22 38.6147 433.281 38.86C433.342 39.1053 433.342 39.412 433.281 39.78C433.158 41.8653 433.25 43.8893 433.557 45.852C433.864 47.7533 434.17 49.716 434.477 51.74C434.6 52.7213 434.814 53.5493 435.121 54.224C435.489 54.8373 436.102 55.4813 436.961 56.156C437.82 56.8307 438.801 57.2907 439.905 57.536C441.009 57.72 442.144 57.8427 443.309 57.904C444.536 57.9653 445.762 57.9653 446.989 57.904C448.216 57.7813 449.35 57.72 450.393 57.72C451.804 57.72 453.214 57.7507 454.625 57.812C456.036 57.812 457.385 57.72 458.673 57.536C460.022 57.2907 461.31 56.9227 462.537 56.432C463.764 55.88 464.929 55.052 466.033 53.948ZM552.182 13.008C553.408 11.352 555.003 9.91066 556.966 8.684C558.99 7.45733 561.075 6.936 563.222 7.12C565.246 7.304 566.902 8.00933 568.19 9.236C569.539 10.4627 570.551 11.996 571.226 13.836C571.9 15.676 572.268 17.4853 572.33 19.264C572.452 21.0427 572.544 22.9133 572.606 24.876C572.667 29.2307 572.146 33.4013 571.042 37.388C569.938 41.3133 568.374 45.0547 566.35 48.612C564.326 52.1693 561.934 55.512 559.174 58.64C556.414 61.768 553.439 64.6813 550.25 67.38H548.318C550.771 64.804 552.887 61.9827 554.666 58.916C556.444 55.788 557.886 52.5067 558.99 49.072C559.603 47.1093 560.063 45.3 560.37 43.644C560.738 41.9267 560.983 40.2707 561.106 38.676C561.29 37.02 561.382 35.3333 561.382 33.616C561.382 31.8987 561.382 30.028 561.382 28.004C561.382 27.2067 561.351 26.2867 561.29 25.244C561.29 24.14 561.136 23.128 560.83 22.208C560.584 21.288 560.124 20.5213 559.45 19.908C558.775 19.2947 557.824 19.0187 556.598 19.08C555.555 19.2027 554.604 19.5707 553.746 20.184C552.887 20.736 552.182 21.4413 551.63 22.3C551.384 26.2867 551.016 30.3347 550.526 34.444C550.096 38.5533 549.36 42.5707 548.318 46.496C547.275 50.4213 545.803 54.1627 543.902 57.72C542 61.2773 539.486 64.4667 536.358 67.288C536.051 67.288 535.714 67.288 535.346 67.288C535.039 67.288 534.732 67.2573 534.426 67.196C536.634 63.884 538.228 60.3573 539.21 56.616C540.13 52.8747 540.712 49.1027 540.958 45.3C541.264 41.436 541.326 37.572 541.142 33.708C541.019 31.8067 540.896 29.8747 540.774 27.912C540.651 25.9493 540.651 24.048 540.774 22.208C540.835 21.1653 540.896 20.184 540.958 19.264C541.08 18.344 540.988 17.3933 540.682 16.412C540.375 15.308 539.915 14.5107 539.302 14.02C538.688 13.468 537.799 13.2533 536.634 13.376C535.039 13.4987 533.72 14.0813 532.678 15.124C531.696 16.1053 530.868 17.2707 530.194 18.62C529.948 22.668 529.856 26.716 529.918 30.764C529.979 34.7507 530.01 38.768 530.01 42.816C530.01 46.864 529.887 50.912 529.642 54.96C529.396 58.9467 528.814 62.9333 527.894 66.92C526.238 66.7973 524.582 66.6747 522.926 66.552C521.27 66.4293 519.614 66.2453 517.958 66C518.632 62.8107 519.062 59.5907 519.246 56.34C519.491 53.028 519.614 49.716 519.614 46.404C519.614 43.092 519.552 39.78 519.43 36.468C519.368 33.156 519.368 29.8747 519.43 26.624C519.491 24.416 519.644 22.2387 519.89 20.092C520.135 17.9453 520.411 15.768 520.718 13.56C520.779 13.1307 520.687 12.6707 520.442 12.18C520.135 11.5053 519.644 11.0147 518.97 10.708C518.356 10.4013 517.743 10.0947 517.13 9.788C519.89 8.37733 522.619 6.936 525.318 5.464C528.016 3.93066 530.776 2.52 533.598 1.23199C533.291 2.52 532.954 3.808 532.586 5.09599C532.279 6.32266 532.003 7.58 531.758 8.868C533.475 6.23066 535.53 4.23733 537.922 2.888C540.375 1.47733 542.675 0.863996 544.822 1.048C547.03 1.17066 548.839 2.21333 550.25 4.176C551.722 6.07733 552.366 9.02133 552.182 13.008ZM612.935 20.736C612.935 23.68 612.077 26.0413 610.359 27.82C608.642 29.5373 606.679 30.7027 604.471 31.316C602.263 31.9293 600.117 31.9907 598.031 31.5C595.946 30.948 594.535 29.936 593.799 28.464C593.554 27.9733 593.462 27.4213 593.523 26.808C593.585 26.1333 593.707 25.4587 593.891 24.784C594.075 24.048 594.29 23.3733 594.535 22.76C594.842 22.1467 595.087 21.5947 595.271 21.104C595.149 22.576 595.609 23.8333 596.651 24.876C597.755 25.9187 599.043 26.3173 600.515 26.072C600.822 26.0107 601.129 25.98 601.435 25.98C601.803 25.9187 602.141 25.888 602.447 25.888C603.797 26.0107 604.962 25.98 605.943 25.796C606.986 25.612 608.09 25.1213 609.255 24.324C609.991 23.8333 610.666 23.2813 611.279 22.668C611.893 22.0547 612.445 21.4107 612.935 20.736ZM638.327 53.856C637.53 56.064 636.549 58.1493 635.383 60.112C634.218 62.0133 632.654 63.6387 630.691 64.988C629.281 65.9693 627.931 66.5213 626.643 66.644C625.417 66.7667 624.006 66.828 622.411 66.828C621.001 66.8893 619.498 66.9813 617.903 67.104C616.37 67.2267 614.898 67.0733 613.487 66.644C611.095 65.9693 609.01 64.7427 607.231 62.964C605.514 61.124 604.563 58.916 604.379 56.34H604.195C603.521 57.5053 602.723 58.6707 601.803 59.836C600.883 61.0013 599.841 62.044 598.675 62.964C597.571 63.884 596.375 64.6507 595.087 65.264C593.799 65.8773 592.45 66.2147 591.039 66.276C589.935 65.724 589.077 64.9573 588.463 63.976C587.911 62.9947 587.482 61.952 587.175 60.848C586.93 59.6827 586.777 58.4867 586.715 57.26C586.654 56.0333 586.593 54.868 586.531 53.764C586.409 51.556 586.378 49.348 586.439 47.14C586.501 44.932 586.439 42.6933 586.255 40.424C589.015 38.1547 591.837 35.7933 594.719 33.34C594.413 35.0573 594.229 36.7747 594.167 38.492C594.167 40.2093 594.167 41.9267 594.167 43.644C594.229 45.3613 594.259 47.0787 594.259 48.796C594.321 50.5133 594.259 52.2307 594.075 53.948C596.099 53.764 597.817 53.12 599.227 52.016C600.638 50.8507 601.803 49.4707 602.723 47.876C603.643 46.22 604.379 44.472 604.931 42.632C605.545 40.7307 606.066 38.952 606.495 37.296C607.477 36.8667 608.397 36.4373 609.255 36.008C610.175 35.5173 611.126 35.0573 612.107 34.628C611.801 36.8973 611.739 39.1667 611.923 41.436C612.107 43.644 612.199 45.9133 612.199 48.244C612.261 49.348 612.23 50.452 612.107 51.556C611.985 52.66 611.985 53.7947 612.107 54.96C612.107 55.696 612.291 56.432 612.659 57.168C613.15 57.536 613.61 57.7507 614.039 57.812C614.469 57.8733 614.959 57.904 615.511 57.904C618.149 57.7813 620.786 57.7813 623.423 57.904C626.122 57.9653 628.79 57.8427 631.427 57.536C632.654 57.4133 633.881 56.984 635.107 56.248C636.334 55.4507 637.407 54.6533 638.327 53.856ZM666.538 37.296C667.764 37.112 668.991 37.296 670.218 37.848C671.322 38.3387 672.242 39.0747 672.978 40.056C673.775 40.976 674.358 42.0493 674.726 43.276C674.971 44.012 675.063 44.8093 675.002 45.668C675.002 46.5267 674.94 47.416 674.818 48.336C674.695 49.256 674.511 50.1453 674.266 51.004C674.02 51.8627 673.775 52.66 673.53 53.396C672.978 54.9907 672.303 56.5547 671.506 58.088C670.708 59.6213 669.758 61.032 668.654 62.32C667.55 63.608 666.292 64.712 664.882 65.632C663.471 66.4907 661.876 67.0733 660.098 67.38C657.951 66.5213 656.295 65.264 655.13 63.608C654.026 61.952 653.136 60.0507 652.462 57.904C651.971 56.3093 651.572 54.2547 651.266 51.74C651.02 49.164 650.806 46.3733 650.622 43.368C650.499 40.3627 650.438 37.204 650.438 33.892C650.438 30.58 650.468 27.3907 650.53 24.324C650.652 21.2573 650.775 18.436 650.898 15.86C651.082 13.2227 651.266 11.0453 651.45 9.32799C653.106 7.97866 654.762 6.66 656.418 5.372C658.074 4.02266 659.791 2.73466 661.57 1.508C660.65 7.64133 660.098 13.836 659.914 20.092C659.73 26.2867 659.638 32.512 659.638 38.768C659.638 39.8107 659.607 41.0987 659.546 42.632C659.484 44.1653 659.423 45.7293 659.362 47.324C659.3 48.8573 659.27 50.36 659.27 51.832C659.27 53.2427 659.331 54.408 659.454 55.328C659.638 56.8613 660.374 57.8733 661.662 58.364C663.379 58.1187 664.851 57.1987 666.078 55.604C667.366 54.0093 668.194 52.292 668.562 50.452C668.991 48.612 668.838 46.8947 668.102 45.3C667.427 43.7053 666.016 42.816 663.87 42.632C664.36 41.7733 664.79 40.884 665.158 39.964C665.587 39.044 666.047 38.1547 666.538 37.296ZM749.929 53.856C749.684 55.328 749.132 56.8 748.273 58.272C747.476 59.6827 746.464 60.9707 745.237 62.136C744.011 63.3013 742.661 64.2827 741.189 65.08C739.717 65.8773 738.215 66.3373 736.681 66.46C735.639 66.5827 734.535 66.6133 733.369 66.552C732.265 66.552 731.192 66.552 730.149 66.552C729.107 66.552 727.88 66.5827 726.469 66.644C725.059 66.7053 723.648 66.6747 722.237 66.552C720.827 66.4907 719.477 66.3067 718.189 66C716.963 65.632 715.951 65.0187 715.153 64.16C714.785 63.792 714.448 63.3013 714.141 62.688C713.896 62.0747 713.681 61.4307 713.497 60.756C713.313 60.0813 713.129 59.4067 712.945 58.732C712.761 58.0573 712.577 57.444 712.393 56.892H712.209C710.063 59.652 707.395 61.8907 704.205 63.608C701.016 65.264 697.673 66.1227 694.177 66.184C692.46 66.184 691.111 65.5707 690.129 64.344C689.087 63.1173 688.688 61.676 688.933 60.02C689.179 58.6707 689.393 57.3827 689.577 56.156C689.823 54.868 690.099 53.5493 690.405 52.2C690.957 49.992 691.969 48.06 693.441 46.404C694.975 44.6867 696.723 43.184 698.685 41.896C700.648 40.608 702.733 39.5347 704.941 38.676C707.149 37.756 709.265 36.9893 711.289 36.376C711.657 37.2347 712.056 38.0933 712.485 38.952C712.976 39.8107 713.528 40.6387 714.141 41.436C715.552 40.5773 716.963 39.78 718.373 39.044C719.784 38.2467 721.195 37.4187 722.605 36.56H722.881C722.207 37.7867 721.563 39.32 720.949 41.16C720.336 42.9387 719.907 44.7787 719.661 46.68C719.477 48.5813 719.569 50.3907 719.937 52.108C720.305 53.764 721.133 55.0827 722.421 56.064C723.219 56.6773 724.169 57.1067 725.273 57.352C726.377 57.536 727.512 57.6587 728.677 57.72C729.843 57.72 731.008 57.6893 732.173 57.628C733.339 57.5667 734.412 57.536 735.393 57.536C736.743 57.536 738.061 57.5667 739.349 57.628C740.699 57.6893 741.987 57.628 743.213 57.444C744.44 57.26 745.605 56.9227 746.709 56.432C747.813 55.88 748.887 55.0213 749.929 53.856ZM712.209 43.828C710.737 44.2573 709.204 44.8093 707.609 45.484C706.076 46.1587 704.604 46.9867 703.193 47.968C701.783 48.888 700.525 49.992 699.421 51.28C698.379 52.5067 697.643 53.9173 697.213 55.512V55.604L697.949 56.432L698.961 56.616C700.495 56.1253 701.844 55.42 703.009 54.5C704.236 53.5187 705.34 52.4453 706.321 51.28C707.364 50.0533 708.345 48.796 709.265 47.508C710.185 46.1587 711.167 44.932 712.209 43.828ZM775.598 67.472C774.494 67.2267 773.237 66.8893 771.826 66.46C770.415 66.092 769.066 65.5707 767.778 64.896C766.551 64.2213 765.509 63.3933 764.65 62.412C763.791 61.4307 763.362 60.204 763.362 58.732C763.362 57.8733 763.362 57.0147 763.362 56.156C763.423 55.236 763.454 54.316 763.454 53.396C763.393 52.5373 763.301 51.6787 763.178 50.82C763.117 49.9 763.086 49.0107 763.086 48.152C763.147 47.232 763.393 46.22 763.822 45.116C764.251 44.012 764.711 43.0613 765.202 42.264C767.042 39.504 769.373 37.4493 772.194 36.1C775.015 34.7507 778.051 34.0147 781.302 33.892C784.123 33.7693 786.607 34.4747 788.754 36.008C790.962 37.5413 792.649 39.412 793.814 41.62C794.979 43.828 795.531 46.0973 795.47 48.428C795.47 50.6973 794.673 52.5373 793.078 53.948C792.342 54.6227 791.483 55.144 790.502 55.512C789.582 55.8187 788.601 55.9413 787.558 55.88C786.822 54.776 785.994 53.764 785.074 52.844C784.215 51.924 783.357 50.9733 782.498 49.992C785.442 49.3787 787.343 48.428 788.202 47.14C789.122 45.852 789.306 44.5947 788.754 43.368C788.263 42.1413 787.221 41.068 785.626 40.148C784.031 39.1667 782.253 38.676 780.29 38.676C777.653 38.676 775.69 39.8413 774.402 42.172C774.157 42.6627 773.973 43.3987 773.85 44.38C773.727 45.3 773.635 46.312 773.574 47.416C773.574 48.4587 773.574 49.5013 773.574 50.544C773.635 51.5867 773.697 52.384 773.758 52.936C773.881 54.408 773.85 55.8187 773.666 57.168C773.543 58.5173 773.421 59.8973 773.298 61.308C773.175 62.3507 773.359 63.4547 773.85 64.62C774.402 65.724 774.985 66.6747 775.598 67.472ZM869.673 53.856C869.428 55.328 868.876 56.8 868.017 58.272C867.22 59.6827 866.208 60.9707 864.981 62.136C863.754 63.3013 862.405 64.2827 860.933 65.08C859.461 65.8773 857.958 66.3373 856.425 66.46C855.382 66.5827 854.278 66.6133 853.113 66.552C852.009 66.552 850.936 66.552 849.893 66.552C848.85 66.552 847.624 66.5827 846.213 66.644C844.802 66.7053 843.392 66.6747 841.981 66.552C840.57 66.4907 839.221 66.3067 837.933 66C836.706 65.632 835.694 65.0187 834.897 64.16C834.529 63.792 834.192 63.3013 833.885 62.688C833.64 62.0747 833.425 61.4307 833.241 60.756C833.057 60.0813 832.873 59.4067 832.689 58.732C832.505 58.0573 832.321 57.444 832.137 56.892H831.953C829.806 59.652 827.138 61.8907 823.949 63.608C820.76 65.264 817.417 66.1227 813.921 66.184C812.204 66.184 810.854 65.5707 809.873 64.344C808.83 63.1173 808.432 61.676 808.677 60.02C808.922 58.6707 809.137 57.3827 809.321 56.156C809.566 54.868 809.842 53.5493 810.149 52.2C810.701 49.992 811.713 48.06 813.185 46.404C814.718 44.6867 816.466 43.184 818.429 41.896C820.392 40.608 822.477 39.5347 824.685 38.676C826.893 37.756 829.009 36.9893 831.033 36.376C831.401 37.2347 831.8 38.0933 832.229 38.952C832.72 39.8107 833.272 40.6387 833.885 41.436C835.296 40.5773 836.706 39.78 838.117 39.044C839.528 38.2467 840.938 37.4187 842.349 36.56H842.625C841.95 37.7867 841.306 39.32 840.693 41.16C840.08 42.9387 839.65 44.7787 839.405 46.68C839.221 48.5813 839.313 50.3907 839.681 52.108C840.049 53.764 840.877 55.0827 842.165 56.064C842.962 56.6773 843.913 57.1067 845.017 57.352C846.121 57.536 847.256 57.6587 848.421 57.72C849.586 57.72 850.752 57.6893 851.917 57.628C853.082 57.5667 854.156 57.536 855.137 57.536C856.486 57.536 857.805 57.5667 859.093 57.628C860.442 57.6893 861.73 57.628 862.957 57.444C864.184 57.26 865.349 56.9227 866.453 56.432C867.557 55.88 868.63 55.0213 869.673 53.856ZM831.953 43.828C830.481 44.2573 828.948 44.8093 827.353 45.484C825.82 46.1587 824.348 46.9867 822.937 47.968C821.526 48.888 820.269 49.992 819.165 51.28C818.122 52.5067 817.386 53.9173 816.957 55.512V55.604L817.693 56.432L818.705 56.616C820.238 56.1253 821.588 55.42 822.753 54.5C823.98 53.5187 825.084 52.4453 826.065 51.28C827.108 50.0533 828.089 48.796 829.009 47.508C829.929 46.1587 830.91 44.932 831.953 43.828ZM943.201 39.504C942.526 40.1787 941.821 40.8533 941.085 41.528C940.349 42.1413 939.644 42.7853 938.969 43.46C938.417 42.7853 937.773 42.172 937.037 41.62C936.362 41.0067 935.749 40.3627 935.197 39.688C935.872 39.0133 936.516 38.3693 937.129 37.756C937.804 37.1427 938.448 36.4987 939.061 35.824C939.797 36.376 940.502 36.9587 941.177 37.572C941.852 38.1853 942.526 38.8293 943.201 39.504ZM932.529 39.688C931.854 40.3627 931.21 41.0373 930.597 41.712C929.984 42.3253 929.34 42.9693 928.665 43.644L924.709 39.688C925.384 39.0133 926.028 38.3693 926.641 37.756C927.254 37.1427 927.868 36.4987 928.481 35.824C929.156 36.4987 929.83 37.1427 930.505 37.756C931.18 38.3693 931.854 39.0133 932.529 39.688ZM944.213 53.764C943.354 55.9107 942.312 57.996 941.085 60.02C939.92 62.044 938.386 63.7613 936.485 65.172C935.872 65.6013 935.197 65.9387 934.461 66.184C933.725 66.4907 932.989 66.7053 932.253 66.828C931.456 66.9507 930.229 67.0427 928.573 67.104C926.917 67.1653 925.046 67.2267 922.961 67.288C920.876 67.3493 918.698 67.38 916.429 67.38C914.221 67.4413 912.105 67.4413 910.081 67.38C908.118 67.3187 906.37 67.2267 904.837 67.104C903.304 66.9813 902.23 66.7973 901.617 66.552C899.47 65.6933 897.6 64.344 896.005 62.504C894.41 60.6027 893.245 58.548 892.509 56.34C891.466 57.8733 890.822 59.56 890.577 61.4C890.393 63.1787 890.424 64.9573 890.669 66.736C889.258 66.6747 887.817 66.552 886.345 66.368C884.873 66.2453 883.432 66.1227 882.021 66C883.002 61.3387 883.493 56.616 883.493 51.832C883.554 46.9867 883.554 42.172 883.493 37.388C883.432 32.604 883.554 27.8507 883.861 23.128C884.168 18.344 885.057 13.652 886.529 9.052L897.109 1.784C895.76 5.52533 894.748 9.26666 894.073 13.008C893.46 16.7493 893.03 20.5213 892.785 24.324C892.601 28.0653 892.54 31.8373 892.601 35.64C892.662 39.4427 892.724 43.3067 892.785 47.232C893.889 46.0053 895.146 44.748 896.557 43.46C898.029 42.172 899.562 41.0067 901.157 39.964C902.813 38.86 904.5 37.94 906.217 37.204C907.934 36.4067 909.652 35.9467 911.369 35.824C912.228 35.7013 912.994 35.916 913.669 36.468C914.405 37.02 914.957 37.6947 915.325 38.492C915.693 39.228 915.877 40.0253 915.877 40.884C915.938 41.7427 915.785 42.5707 915.417 43.368C915.11 42.632 914.589 42.1107 913.853 41.804C912.565 41.252 911.062 41.2213 909.345 41.712C907.689 42.2027 906.033 42.9693 904.377 44.012C902.721 44.9933 901.157 46.128 899.685 47.416C898.213 48.6427 897.048 49.6853 896.189 50.544C896.741 51.7707 897.416 53.028 898.213 54.316C899.01 55.604 899.992 56.5853 901.157 57.26C902.016 57.812 902.874 58.1187 903.733 58.18C906.493 58.4253 909.284 58.5173 912.105 58.456C914.926 58.3333 917.717 58.2413 920.477 58.18C923.237 58.1187 925.997 58.088 928.757 58.088C931.578 58.088 934.369 57.9347 937.129 57.628C938.417 57.5053 939.674 57.0453 940.901 56.248C942.128 55.4507 943.232 54.6227 944.213 53.764Z" fill="url(#paint0_linear_15_481)"/>
<defs>
<linearGradient id="paint0_linear_15_481" x1="472.5" y1="-11" x2="472.5" y2="88" gradientUnits="userSpaceOnUse">
<stop stop-color="#FCCD54"/>
<stop offset="1" stop-color="#593710"/>
</linearGradient>
</defs>
</svg>
